<svg width="160" height="36" viewBox="0 0 160 36" fill="none" xmlns="http://www.w3.org/2000/svg">
<path d="M126.501 6.42361H133.379V24.8705C133.379 27.0024 132.873 28.8596 131.862 30.4422C130.85 32.0155 129.439 33.2351 127.629 34.1009C125.819 34.9574 123.717 35.3856 121.322 35.3856C118.9 35.3856 116.783 34.9574 114.973 34.1009C113.163 33.2351 111.757 32.0155 110.755 30.4422C109.752 28.8596 109.251 27.0024 109.251 24.8705V6.42361H116.143V24.27C116.143 25.2568 116.356 26.1366 116.783 26.9093C117.22 27.682 117.828 28.2871 118.607 28.7246C119.387 29.1622 120.292 29.3809 121.322 29.3809C122.352 29.3809 123.253 29.1622 124.023 28.7246C124.803 28.2871 125.411 27.682 125.847 26.9093C126.283 26.1366 126.501 25.2568 126.501 24.27V6.42361Z" fill="#4AA764"/>
<path d="M137.821 35.0225V6.42361H149.6C151.735 6.42361 153.577 6.84254 155.127 7.6804C156.686 8.50895 157.888 9.66799 158.733 11.1575C159.578 12.6377 160 14.36 160 16.3243C160 18.2979 159.568 20.0249 158.705 21.5051C157.851 22.976 156.631 24.1164 155.044 24.9263C153.456 25.7363 151.572 26.1412 149.391 26.1412H142.123V20.6951H148.11C149.15 20.6951 150.017 20.5136 150.714 20.1505C151.419 19.7875 151.953 19.2801 152.315 18.6284C152.677 17.9674 152.858 17.1994 152.858 16.3243C152.858 15.4399 152.677 14.6765 152.315 14.0342C151.953 13.3825 151.419 12.8798 150.714 12.526C150.008 12.1723 149.14 11.9954 148.11 11.9954H144.713V35.0225H137.821Z" fill="#4AA764"/>
<path d="M116.143 6.42361L116.143 12.903V21.505H109.251V12.903L109.251 6.42361H116.143Z" fill="#4AA764"/>
<path d="M109.251 6.42361H116.143L116.143 12.903H121.183L112.913 0L103.418 12.903H109.251L109.251 6.42361Z" fill="#4AA764"/>
<path d="M16.2339 15.6121C16.141 14.5881 15.728 13.7921 14.9947 13.2242C14.2708 12.647 13.2358 12.3584 11.89 12.3584C10.9989 12.3584 10.2564 12.4748 9.66234 12.7075C9.06831 12.9403 8.62278 13.2614 8.32576 13.6711C8.02875 14.0714 7.8756 14.5322 7.86632 15.0535C7.84775 15.4818 7.93129 15.8588 8.11693 16.1846C8.31184 16.5105 8.5903 16.7991 8.95229 17.0504C9.32356 17.2925 9.76908 17.5066 10.2889 17.6928C10.8086 17.879 11.3934 18.0419 12.0431 18.1815L14.4935 18.7401C15.9043 19.0473 17.1481 19.4569 18.2248 19.969C19.3108 20.481 20.2204 21.0908 20.9536 21.7983C21.6962 22.5058 22.2577 23.3204 22.6383 24.242C23.0188 25.1637 23.2138 26.1971 23.223 27.3421C23.2138 29.1482 22.7589 30.6982 21.8586 31.9922C20.9583 33.2863 19.6635 34.2777 17.9742 34.9666C16.2942 35.6555 14.2661 36 11.89 36C9.50455 36 7.42543 35.6416 5.65261 34.9247C3.87979 34.2079 2.50144 33.1187 1.51757 31.6571C0.533703 30.1955 0.0278453 28.3476 0 26.1133H6.59935C6.65504 27.0349 6.90101 27.8029 7.33725 28.4174C7.7735 29.0318 8.37217 29.4973 9.13328 29.8138C9.90367 30.1303 10.7947 30.2886 11.8064 30.2886C12.7346 30.2886 13.5236 30.1629 14.1733 29.9116C14.8323 29.6602 15.3382 29.3111 15.6909 28.8642C16.0436 28.4174 16.2246 27.9054 16.2339 27.3282C16.2246 26.7882 16.0575 26.3274 15.7326 25.9457C15.4078 25.5547 14.9066 25.2195 14.229 24.9403C13.5607 24.6517 12.7068 24.3863 11.6672 24.1443L8.68775 23.4461C6.2188 22.8782 4.27426 21.9612 2.85415 20.6951C1.43404 19.4197 0.72862 17.6974 0.737902 15.5283C0.72862 13.7595 1.20199 12.2095 2.15802 10.8782C3.11404 9.54693 4.4367 8.50892 6.12598 7.76416C7.81527 7.01939 9.74124 6.64701 11.9039 6.64701C14.113 6.64701 16.0296 7.02405 17.654 7.77812C19.2876 8.52288 20.5545 9.57021 21.4549 10.9201C22.3552 12.27 22.8146 13.834 22.8332 15.6121H16.2339Z" fill="#1E1E1E"/>
<path d="M26.7037 35.6369V7.03801H33.5954V19.1311H33.9713L43.397 7.03801H51.5139L41.4061 19.8014L51.6949 35.6369H43.4527L36.3521 24.3957L33.5954 27.8867V35.6369H26.7037Z" fill="#1E1E1E"/>
<path d="M61.1241 7.03801V35.6369H54.2323V7.03801H61.1241Z" fill="#1E1E1E"/>
<path d="M65.4505 35.6369V7.03801H72.3423V30.0233H84.2044V35.6369H65.4505Z" fill="#1E1E1E"/>
<path d="M87.7721 35.6369V7.03801H94.6638V30.0233H106.526V35.6369H87.7721Z" fill="#1E1E1E"/>
</svg>
