<svg width="457" height="383" viewBox="0 0 457 383" fill="none" xmlns="http://www.w3.org/2000/svg">
<g clip-path="url(#clip0_382_1506)">
<path d="M298.503 58.6748H297.482V68.123H298.503V58.6748Z" fill="#F2F2F2"/>
<path d="M362.258 81.6562H361.238V91.1045H362.258V81.6562Z" fill="#F2F2F2"/>
<path d="M355.118 318.628H354.098V328.076H355.118V318.628Z" fill="#F2F2F2"/>
<path d="M369.909 240.489H368.889V249.937H369.909V240.489Z" fill="#F2F2F2"/>
<path d="M184.666 359.116H63.8945V358.246H183.797V316.051H74.0475L68.716 304.929L69.4994 304.553L74.5942 315.181H184.666V359.116Z" fill="#2F2E41"/>
<path d="M79.9687 380.431C85.0072 380.431 89.0918 376.341 89.0918 371.296C89.0918 366.251 85.0072 362.161 79.9687 362.161C74.9302 362.161 70.8457 366.251 70.8457 371.296C70.8457 376.341 74.9302 380.431 79.9687 380.431Z" fill="#3F3D56"/>
<path d="M169.896 380.431C174.935 380.431 179.02 376.341 179.02 371.296C179.02 366.251 174.935 362.161 169.896 362.161C164.858 362.161 160.773 366.251 160.773 371.296C160.773 376.341 164.858 380.431 169.896 380.431Z" fill="#3F3D56"/>
<path d="M275.898 182.941C279.017 182.941 281.545 180.409 281.545 177.286C281.545 174.163 279.017 171.631 275.898 171.631C272.779 171.631 270.25 174.163 270.25 177.286C270.25 180.409 272.779 182.941 275.898 182.941Z" fill="#3F3D56"/>
<path d="M197.583 301.696H61.8355L32.4629 205.561H227.832L227.655 206.126L197.583 301.696ZM62.4782 300.826H196.946L226.648 206.431H33.6372L62.4782 300.826Z" fill="#2F2E41"/>
<path d="M310.759 349.2V357.918C310.759 357.918 300.965 381.615 310.759 381.615C320.554 381.615 328.171 384.07 328.171 380.801V351.38L310.759 349.2Z" fill="#15141C"/>
<path d="M374.967 349.185V357.902C374.967 357.902 384.761 381.599 374.967 381.599C365.173 381.599 357.555 384.055 357.555 380.786V351.364L374.967 349.185Z" fill="#15141C"/>
<path d="M186.988 296.693H67.7561L41.957 211.433H213.557L213.401 211.935L186.988 296.693Z" fill="#F2F2F2"/>
<path d="M230.268 196.972L229.428 196.749L235.161 175.11H268.512V175.981H235.83L230.268 196.972Z" fill="#2F2E41"/>
<path d="M218.07 234.705H41.9551V235.575H218.07V234.705Z" fill="#2F2E41"/>
<path d="M207.984 266.758H51.748V267.628H207.984V266.758Z" fill="#2F2E41"/>
<path d="M130.58 205.995H129.711V301.26H130.58V205.995Z" fill="#2F2E41"/>
<path d="M169.481 205.968L163.244 301.23L164.111 301.287L170.348 206.025L169.481 205.968Z" fill="#2F2E41"/>
<path d="M90.8281 205.967L89.9609 206.023L96.1617 301.289L97.0289 301.232L90.8281 205.967Z" fill="#2F2E41"/>
<path d="M303.686 32.1014C303.686 32.1014 311.142 53.3503 306.553 56.6194C301.965 59.8884 322.039 86.5858 322.039 86.5858L346.128 80.0477L332.936 57.709C332.936 57.709 331.216 35.3704 331.216 32.1014C331.216 28.8323 303.686 32.1014 303.686 32.1014Z" fill="#A0616A"/>
<path opacity="0.1" d="M303.686 32.1014C303.686 32.1014 311.142 53.3503 306.553 56.6194C301.965 59.8884 322.039 86.5858 322.039 86.5858L346.128 80.0477L332.936 57.709C332.936 57.709 331.216 35.3704 331.216 32.1014C331.216 28.8323 303.686 32.1014 303.686 32.1014Z" fill="black"/>
<path d="M291.17 183.568C291.17 183.568 288.994 210.81 291.17 224.976C293.347 239.142 296.612 278.37 296.612 278.37C296.612 278.37 296.612 352.469 308.583 353.559C320.553 354.649 329.26 355.738 330.348 351.38C331.436 347.021 324.906 344.841 328.171 342.662C331.436 340.483 332.524 332.855 328.171 324.137C323.818 315.42 328.171 227.155 328.171 227.155L348.848 282.729C348.848 282.729 351.025 328.496 353.201 335.034C355.378 341.572 351.025 353.559 358.643 354.649C366.26 355.738 374.966 349.2 379.319 347.021C383.673 344.841 372.79 344.841 374.966 343.752C377.143 342.662 383.672 339.393 381.496 338.303C379.319 337.214 377.143 284.909 377.143 284.909C377.143 284.909 371.158 173.215 363.54 168.857C355.922 164.498 351.025 172.006 351.025 172.006L291.17 183.568Z" fill="#2F2E41"/>
<path d="M318.921 47.9017C329.739 47.9017 338.509 39.12 338.509 28.2873C338.509 17.4545 329.739 8.67285 318.921 8.67285C308.102 8.67285 299.332 17.4545 299.332 28.2873C299.332 39.12 308.102 47.9017 318.921 47.9017Z" fill="#A0616A"/>
<path d="M312.936 64.792C312.936 64.792 318.378 81.1373 327.084 77.8683L335.79 74.5992L351.025 179.209C351.025 179.209 339.055 196.644 321.642 185.747C304.23 174.851 312.936 64.792 312.936 64.792Z" fill="#4AA764"/>
<path d="M328.172 61.5229L333.069 51.1709C333.069 51.1709 361.908 64.792 366.261 69.1508C370.614 73.5095 370.614 80.0477 370.614 80.0477L362.996 107.29C362.996 107.29 365.173 167.223 365.173 169.402C365.173 171.582 372.791 183.568 367.349 179.209C361.908 174.851 360.82 170.492 356.467 177.03C352.114 183.568 342.319 191.196 342.319 191.196L328.172 61.5229Z" fill="#3F3D56"/>
<path d="M366.261 139.98L362.996 170.492C362.996 170.492 343.407 187.927 347.76 189.016C352.113 190.106 354.29 185.747 354.29 185.747C354.29 185.747 361.907 193.375 366.261 189.016C370.614 184.658 381.496 143.25 381.496 143.25L366.261 139.98Z" fill="#A0616A"/>
<path d="M319.339 0.566327C314.997 0.410881 310.35 0.333987 306.688 2.67722C305.004 3.85318 303.526 5.3015 302.316 6.9629C298.75 11.4768 295.669 17.1564 296.993 22.7569L298.532 22.1561C298.532 23.6511 298.2 25.1274 297.56 26.4781C297.777 25.8473 298.502 26.867 298.308 27.5051L296.613 33.0722C299.399 32.0496 302.865 34.1201 303.289 37.0607C303.482 30.5945 304.152 23.1797 309.391 19.3934C312.033 17.484 315.376 16.9011 318.593 16.3835C321.561 15.906 324.672 15.4507 327.514 16.4289C330.357 17.4072 332.777 20.318 332.133 23.2576C333.443 22.8056 334.909 23.7202 335.557 24.9474C336.205 26.1746 336.239 27.6222 336.258 29.0101C337.655 29.9988 339.245 28.0356 339.814 26.4202C341.151 22.6285 342.339 18.5923 341.619 14.6365C340.899 10.6807 337.68 6.90036 333.664 6.88694C334.151 6.35086 334.412 5.64596 334.389 4.92133L331.079 4.64131C331.92 4.52217 332.692 4.11422 333.265 3.48732C331.936 4.95151 321.488 0.643246 319.339 0.566327Z" fill="#2F2E41"/>
<path d="M318.378 58.2532C318.378 58.2532 309.519 49.5604 306.331 50.0928C303.143 50.6253 298.79 58.2532 298.79 58.2532C298.79 58.2532 272.671 66.9707 273.76 75.6882C274.848 84.4057 286.819 126.904 286.819 126.904C286.819 126.904 296.613 178.119 287.907 183.567C279.201 189.016 329.261 203.182 330.349 196.644C331.437 190.106 333.614 124.724 330.349 114.917C327.084 105.11 318.378 58.2532 318.378 58.2532Z" fill="#3F3D56"/>
<path d="M356.467 75.6885H369.923C369.923 75.6885 379.32 117.097 380.409 121.455C381.497 125.814 383.673 146.518 382.585 146.518C381.497 146.518 359.732 142.16 359.732 145.429L356.467 75.6885Z" fill="#3F3D56"/>
<path d="M356.01 178.229H304.496C299.469 155.073 299.049 132.7 304.496 111.325H356.01C347.697 132.316 347.177 154.535 356.01 178.229Z" fill="#F2F2F2"/>
<path d="M283.553 149.787L298.788 156.325C298.788 156.325 328.171 160.684 328.171 148.698C328.171 136.711 298.788 143.249 298.788 143.249L288.993 140.113L283.553 149.787Z" fill="#A0616A"/>
<path d="M286.819 69.1504L273.76 72.4195L263.965 130.173C263.965 130.173 260.701 145.429 266.142 146.518C271.583 147.608 286.819 156.326 286.819 156.326C286.819 156.326 288.995 139.98 293.348 139.98L282.466 131.263L288.995 93.1236L286.819 69.1504Z" fill="#3F3D56"/>
</g>
<defs>
<clipPath id="clip0_382_1506">
<rect width="457" height="382" fill="white" transform="translate(0 0.5)"/>
</clipPath>
</defs>
</svg>
