<svg width="587" height="491" viewBox="0 0 587 491" fill="none" xmlns="http://www.w3.org/2000/svg">
<g clip-path="url(#clip0_659_6854)">
<path d="M275.715 491C403.748 491 507.54 485.69 507.54 479.14C507.54 472.59 403.748 467.28 275.715 467.28C147.682 467.28 43.8906 472.59 43.8906 479.14C43.8906 485.69 147.682 491 275.715 491Z" fill="#F2F2F2"/>
<path d="M411.157 113.953H408.524V41.7748C408.524 30.6954 404.124 20.0699 396.294 12.2356C388.463 4.40128 377.842 1.22324e-05 366.768 0H213.917C202.843 -2.09697e-05 192.222 4.40121 184.391 12.2355C176.56 20.0697 172.161 30.6953 172.161 41.7747V437.75C172.161 448.829 176.56 459.455 184.391 467.289C192.222 475.123 202.843 479.525 213.917 479.525H366.768C377.842 479.525 388.463 475.123 396.293 467.289C404.124 459.455 408.524 448.829 408.524 437.75V165.331H411.157L411.157 113.953Z" fill="#3F3D56"/>
<path d="M399.636 42.066V437.458C399.636 445.733 396.35 453.668 390.502 459.519C384.654 465.37 376.722 468.657 368.452 468.657H214.868C206.597 468.657 198.666 465.37 192.817 459.519C186.969 453.668 183.684 445.733 183.684 437.458V42.066C183.684 33.7918 186.969 25.8564 192.817 20.0056C198.666 14.1548 206.597 10.8678 214.868 10.8677H233.5C232.584 13.1184 232.235 15.5598 232.484 17.9769C232.733 20.3941 233.572 22.7131 234.927 24.7298C236.282 26.7466 238.111 28.3993 240.255 29.5426C242.398 30.6859 244.789 31.2848 247.218 31.2866H334.784C337.213 31.2848 339.605 30.6859 341.748 29.5426C343.891 28.3992 345.72 26.7465 347.075 24.7298C348.43 22.713 349.269 20.3941 349.518 17.9769C349.767 15.5597 349.418 13.1184 348.503 10.8677H368.452C376.722 10.8678 384.654 14.1548 390.502 20.0056C396.35 25.8564 399.636 33.7918 399.636 42.066Z" fill="white"/>
<path d="M350.159 212.558C349.138 213.091 348.099 213.597 347.043 214.073C346.082 214.508 345.105 214.917 344.113 215.299C343.75 215.437 343.382 215.575 343.013 215.714C340.097 216.772 337.102 217.598 334.056 218.185C332.548 218.481 331.02 218.714 329.472 218.883C328.194 219.028 326.904 219.131 325.6 219.193C324.671 219.239 323.742 219.259 322.807 219.259C319.104 219.26 315.408 218.914 311.769 218.224C310.821 218.053 309.892 217.849 308.963 217.625C304.472 216.548 300.123 214.942 296.009 212.841C295.64 212.657 295.271 212.459 294.902 212.268C294.356 211.978 293.823 211.675 293.289 211.359C293.546 211.003 293.823 210.654 294.106 210.311C297.187 206.49 301.039 203.362 305.41 201.13C309.781 198.898 314.574 197.613 319.474 197.358C324.375 197.103 329.275 197.884 333.853 199.651C338.432 201.417 342.588 204.129 346.049 207.609C347.25 208.815 348.364 210.106 349.381 211.471C349.651 211.826 349.908 212.189 350.159 212.558Z" fill="#6C63FF"/>
<path d="M324.122 183.615C340.093 183.615 353.04 170.662 353.04 154.683C353.04 138.705 340.093 125.751 324.122 125.751C308.15 125.751 295.203 138.705 295.203 154.683C295.203 170.662 308.15 183.615 324.122 183.615Z" fill="#2F2E41"/>
<path d="M331.813 183.655C342.243 177.951 346.076 164.868 340.375 154.433C334.673 143.998 321.595 140.163 311.165 145.867C300.735 151.571 296.901 164.655 302.603 175.09C308.305 185.525 321.383 189.36 331.813 183.655Z" fill="#A0616A"/>
<path d="M344.105 151.217C339.187 154.608 333.349 156.413 327.376 156.389C329.506 157.867 331.932 158.866 334.486 159.316C326.544 161.02 318.335 161.066 310.375 159.451C308.605 159.168 306.898 158.581 305.327 157.717C304.545 157.28 303.863 156.683 303.326 155.964C302.789 155.246 302.41 154.423 302.212 153.549C301.683 150.525 304.038 147.778 306.485 145.927C310.232 143.136 314.552 141.213 319.132 140.297C323.713 139.382 328.44 139.496 332.971 140.632C335.93 141.397 338.894 142.69 340.816 145.067C342.737 147.444 343.307 151.109 341.476 153.557L344.105 151.217Z" fill="#2F2E41"/>
<path d="M322.807 100.659C309.881 100.657 297.308 104.883 287.005 112.694C276.702 120.505 269.235 131.472 265.74 143.923C262.246 156.374 262.917 169.627 267.65 181.661C272.384 193.695 280.92 203.851 291.959 210.581L292.341 210.805C292.657 210.996 292.973 211.181 293.289 211.359C293.823 211.675 294.356 211.978 294.903 212.268C295.272 212.459 295.641 212.657 296.009 212.841C300.124 214.942 304.472 216.548 308.964 217.625C309.893 217.849 310.821 218.053 311.77 218.224C315.408 218.914 319.104 219.26 322.807 219.259C323.743 219.259 324.671 219.239 325.6 219.193C326.904 219.133 328.195 219.03 329.473 218.883C331.02 218.712 332.548 218.479 334.056 218.185C337.102 217.598 340.097 216.772 343.013 215.714C343.382 215.575 343.751 215.437 344.113 215.299C345.107 214.917 346.084 214.508 347.044 214.073C348.097 213.599 349.136 213.094 350.159 212.558C360.412 207.186 368.886 198.953 374.553 188.858C374.579 188.805 374.612 188.752 374.639 188.699C377.662 183.271 379.807 177.398 380.994 171.298C382.66 162.711 382.408 153.862 380.255 145.384C378.102 136.906 374.103 129.009 368.542 122.258C362.982 115.508 355.998 110.071 348.092 106.337C340.185 102.603 331.551 100.664 322.807 100.659ZM373.559 187.928C373.506 188.021 373.46 188.113 373.407 188.199C367.853 198.145 359.498 206.238 349.382 211.471C348.374 211.998 347.349 212.492 346.306 212.953C345.443 213.342 344.561 213.711 343.672 214.053C343.296 214.198 342.914 214.343 342.532 214.475C340.013 215.396 337.432 216.136 334.807 216.689C332.86 217.104 330.893 217.414 328.913 217.618C327.694 217.75 326.456 217.842 325.211 217.888C324.414 217.921 323.611 217.941 322.807 217.941C319.223 217.945 315.647 217.612 312.125 216.946C309.983 216.551 307.865 216.031 305.783 215.391C302.611 214.411 299.528 213.161 296.569 211.655C296.227 211.477 295.884 211.299 295.548 211.115C295.067 210.858 294.58 210.594 294.106 210.311C293.75 210.113 293.395 209.902 293.046 209.692C292.841 209.573 292.637 209.448 292.433 209.323C282.755 203.376 275.035 194.718 270.23 184.422C265.425 174.126 263.748 162.646 265.406 151.405C267.064 140.164 271.984 129.657 279.556 121.188C287.129 112.719 297.019 106.661 308.002 103.764C318.984 100.868 330.575 101.262 341.336 104.896C352.097 108.53 361.555 115.245 368.536 124.207C375.518 133.17 379.715 143.986 380.608 155.314C381.5 166.641 379.049 177.982 373.559 187.928Z" fill="#3F3D56"/>
<path d="M309.477 126.15C309.166 122.877 305.157 120.862 302.023 121.851C298.888 122.839 296.83 125.997 296.208 129.226C295.909 130.585 295.881 131.991 296.126 133.361C296.37 134.732 296.883 136.041 297.634 137.213C299.219 139.494 302.13 140.918 304.846 140.339C307.946 139.678 310.094 136.649 310.708 133.538C311.323 130.427 310.713 127.22 310.103 124.108L309.477 126.15Z" fill="#2F2E41"/>
<path d="M353.591 130.827C353.28 127.553 349.272 125.538 346.137 126.527C343.003 127.516 340.945 130.673 340.323 133.902C340.023 135.262 339.995 136.667 340.24 138.038C340.485 139.408 340.997 140.717 341.749 141.889C343.333 144.17 346.245 145.594 348.96 145.015C352.06 144.354 354.208 141.326 354.823 138.215C355.437 135.104 354.827 131.896 354.218 128.784L353.591 130.827Z" fill="#2F2E41"/>
<path d="M220.354 183.658C219.944 183.658 219.539 183.572 219.164 183.405C218.789 183.239 218.453 182.997 218.177 182.693L185.496 147.025C185.125 146.621 184.675 146.299 184.173 146.078C183.671 145.857 183.129 145.743 182.581 145.742H9.88499C7.26423 145.739 4.75165 144.696 2.8985 142.842C1.04534 140.988 0.00294245 138.475 0 135.853V73.5467C0.00294071 70.9247 1.04534 68.411 2.8985 66.557C4.75165 64.703 7.26423 63.6602 9.88499 63.6572H233.625C236.246 63.6602 238.759 64.703 240.612 66.557C242.465 68.411 243.507 70.9247 243.51 73.5467V135.853C243.507 138.475 242.465 140.988 240.612 142.842C238.759 144.696 236.246 145.739 233.625 145.742H227.282C226.234 145.743 225.229 146.161 224.487 146.902C223.746 147.644 223.329 148.65 223.328 149.699V180.688C223.33 181.287 223.151 181.872 222.813 182.365C222.476 182.859 221.996 183.239 221.437 183.453C221.092 183.588 220.725 183.658 220.354 183.658Z" fill="white"/>
<path d="M220.354 183.658C219.944 183.658 219.539 183.572 219.164 183.405C218.789 183.239 218.453 182.997 218.177 182.693L185.496 147.025C185.125 146.621 184.675 146.299 184.173 146.078C183.671 145.857 183.129 145.743 182.581 145.742H9.88499C7.26423 145.739 4.75165 144.696 2.8985 142.842C1.04534 140.988 0.00294245 138.475 0 135.853V73.5467C0.00294071 70.9247 1.04534 68.411 2.8985 66.557C4.75165 64.703 7.26423 63.6602 9.88499 63.6572H233.625C236.246 63.6602 238.759 64.703 240.612 66.557C242.465 68.411 243.507 70.9247 243.51 73.5467V135.853C243.507 138.475 242.465 140.988 240.612 142.842C238.759 144.696 236.246 145.739 233.625 145.742H227.282C226.234 145.743 225.229 146.161 224.487 146.902C223.746 147.644 223.329 148.65 223.328 149.699V180.688C223.33 181.287 223.151 181.872 222.813 182.365C222.476 182.859 221.996 183.239 221.437 183.453C221.092 183.588 220.725 183.658 220.354 183.658ZM9.88499 64.975C7.61346 64.9776 5.43569 65.8815 3.82946 67.4884C2.22324 69.0954 1.31975 71.2741 1.31718 73.5467V135.853C1.31975 138.125 2.22325 140.304 3.82947 141.911C5.43569 143.518 7.61346 144.422 9.88499 144.424H182.581C183.312 144.425 184.034 144.578 184.703 144.872C185.372 145.166 185.972 145.596 186.467 146.135L219.147 181.803C219.372 182.047 219.665 182.219 219.988 182.294C220.312 182.37 220.65 182.345 220.96 182.225C221.269 182.105 221.535 181.893 221.723 181.619C221.91 181.345 222.01 181.021 222.01 180.688V149.699C222.012 148.3 222.568 146.96 223.556 145.971C224.545 144.982 225.885 144.426 227.282 144.424H233.625C235.897 144.422 238.075 143.518 239.681 141.911C241.287 140.304 242.191 138.125 242.193 135.853V73.5467C242.191 71.2741 241.287 69.0954 239.681 67.4884C238.075 65.8815 235.897 64.9776 233.625 64.975H9.88499Z" fill="#3F3D56"/>
<path d="M24.2464 91.1423C29.0236 91.1423 32.8962 87.2679 32.8962 82.4886C32.8962 77.7093 29.0236 73.835 24.2464 73.835C19.4693 73.835 15.5967 77.7093 15.5967 82.4886C15.5967 87.2679 19.4693 91.1423 24.2464 91.1423Z" fill="#6C63FF"/>
<path d="M223.534 130.372H19.9761C19.3699 130.373 18.7694 130.254 18.2091 130.022C17.6487 129.791 17.1395 129.451 16.7106 129.022C16.2816 128.594 15.9413 128.085 15.7091 127.524C15.4769 126.964 15.3574 126.363 15.3574 125.757C15.3574 125.15 15.4769 124.55 15.7091 123.989C15.9413 123.429 16.2816 122.92 16.7106 122.491C17.1395 122.063 17.6487 121.723 18.2091 121.491C18.7694 121.26 19.3699 121.141 19.9761 121.142H223.534C224.756 121.143 225.928 121.63 226.792 122.495C227.656 123.361 228.142 124.534 228.142 125.757C228.142 126.98 227.656 128.153 226.792 129.018C225.928 129.884 224.756 130.371 223.534 130.372Z" fill="#E6E6E6"/>
<path d="M157.219 110.757H19.9761C19.3699 110.758 18.7694 110.639 18.2091 110.407C17.6487 110.176 17.1395 109.836 16.7106 109.407C16.2816 108.978 15.9413 108.469 15.7091 107.909C15.4769 107.349 15.3574 106.748 15.3574 106.142C15.3574 105.535 15.4769 104.935 15.7091 104.374C15.9413 103.814 16.2816 103.305 16.7106 102.876C17.1395 102.448 17.6487 102.108 18.2091 101.876C18.7694 101.644 19.3699 101.526 19.9761 101.526H157.219C158.442 101.526 159.616 102.013 160.481 102.878C161.346 103.744 161.832 104.918 161.832 106.142C161.832 107.366 161.346 108.54 160.481 109.405C159.616 110.271 158.442 110.757 157.219 110.757Z" fill="#E6E6E6"/>
<path d="M365.562 394.956C365.004 394.741 364.524 394.362 364.186 393.868C363.849 393.375 363.669 392.79 363.672 392.191V361.202C363.671 360.153 363.254 359.147 362.512 358.405C361.771 357.664 360.766 357.246 359.717 357.245H353.374C350.753 357.242 348.241 356.199 346.388 354.345C344.535 352.491 343.492 349.978 343.489 347.356V285.05C343.492 282.428 344.535 279.914 346.388 278.06C348.241 276.206 350.753 275.163 353.374 275.16H577.115C579.735 275.163 582.248 276.206 584.101 278.06C585.954 279.914 586.997 282.428 587 285.05V347.356C586.997 349.978 585.954 352.491 584.101 354.345C582.248 356.199 579.735 357.242 577.115 357.245H404.419C403.871 357.246 403.329 357.36 402.827 357.581C402.325 357.802 401.875 358.124 401.504 358.528L368.823 394.196C368.547 394.5 368.211 394.742 367.836 394.908C367.461 395.074 367.055 395.16 366.645 395.161C366.275 395.161 365.907 395.091 365.562 394.956Z" fill="white"/>
<path d="M365.562 394.956C365.004 394.741 364.524 394.362 364.186 393.868C363.849 393.375 363.669 392.79 363.672 392.191V361.202C363.671 360.153 363.254 359.147 362.512 358.405C361.771 357.664 360.766 357.246 359.717 357.245H353.374C350.753 357.242 348.241 356.199 346.388 354.345C344.535 352.491 343.492 349.978 343.489 347.356V285.05C343.492 282.428 344.535 279.914 346.388 278.06C348.241 276.206 350.753 275.163 353.374 275.16H577.115C579.735 275.163 582.248 276.206 584.101 278.06C585.954 279.914 586.997 282.428 587 285.05V347.356C586.997 349.978 585.954 352.491 584.101 354.345C582.248 356.199 579.735 357.242 577.115 357.245H404.419C403.871 357.246 403.329 357.36 402.827 357.581C402.325 357.802 401.875 358.124 401.504 358.528L368.823 394.196C368.547 394.5 368.211 394.742 367.836 394.908C367.461 395.074 367.055 395.16 366.645 395.161C366.275 395.161 365.907 395.091 365.562 394.956ZM353.374 276.478C351.103 276.48 348.925 277.384 347.319 278.991C345.712 280.598 344.809 282.777 344.806 285.05V347.356C344.809 349.628 345.712 351.807 347.319 353.414C348.925 355.021 351.103 355.925 353.374 355.927H359.717C361.115 355.929 362.455 356.485 363.443 357.474C364.432 358.463 364.988 359.803 364.989 361.202V392.191C364.989 392.524 365.09 392.848 365.277 393.122C365.464 393.396 365.73 393.608 366.04 393.728C366.349 393.848 366.688 393.872 367.011 393.797C367.335 393.722 367.628 393.55 367.852 393.305L400.533 357.638C401.027 357.099 401.628 356.669 402.297 356.375C402.966 356.081 403.688 355.928 404.419 355.927H577.115C579.386 355.925 581.564 355.021 583.17 353.414C584.776 351.807 585.68 349.628 585.682 347.356V285.05C585.68 282.777 584.776 280.598 583.17 278.991C581.564 277.384 579.386 276.481 577.115 276.478H353.374Z" fill="#3F3D56"/>
<path d="M295.825 414.25C286.65 420.128 276.019 423.333 265.126 423.507C254.232 423.68 243.505 420.815 234.147 415.232C235.794 412.166 237.879 409.358 240.338 406.897C244.133 403.083 248.75 400.19 253.837 398.44C258.923 396.69 264.343 396.129 269.679 396.802C275.016 397.474 280.127 399.362 284.621 402.319C289.114 405.276 292.87 409.225 295.601 413.861C295.673 413.986 295.752 414.118 295.825 414.25Z" fill="#6C63FF"/>
<path d="M262.412 382.742C278.489 382.742 291.522 369.703 291.522 353.618C291.522 337.533 278.489 324.494 262.412 324.494C246.334 324.494 233.301 337.533 233.301 353.618C233.301 369.703 246.334 382.742 262.412 382.742Z" fill="#2F2E41"/>
<path d="M284.072 374.16C289.812 363.656 285.953 350.485 275.454 344.743C264.954 339.001 251.789 342.862 246.05 353.366C240.31 363.87 244.169 377.041 254.669 382.783C265.168 388.525 278.333 384.665 284.072 374.16Z" fill="#FFB8B8"/>
<path d="M242.295 350.129C247.246 353.543 253.123 355.36 259.136 355.336C256.991 356.824 254.549 357.829 251.978 358.282C259.973 359.997 268.236 360.044 276.25 358.418C278.031 358.132 279.75 357.542 281.331 356.672C282.118 356.232 282.805 355.631 283.345 354.908C283.885 354.185 284.268 353.357 284.467 352.476C284.999 349.433 282.629 346.668 280.165 344.804C276.394 341.995 272.045 340.059 267.434 339.137C262.823 338.215 258.064 338.33 253.503 339.474C250.525 340.244 247.541 341.545 245.607 343.938C243.672 346.331 243.099 350.02 244.942 352.484L242.295 350.129Z" fill="#2F2E41"/>
<path d="M264.193 424.173C249.936 424.169 236.158 419.022 225.388 409.677C214.617 400.331 207.576 387.414 205.555 373.295C203.534 359.176 206.669 344.801 214.385 332.807C222.101 320.813 233.881 312.005 247.563 307.998C261.246 303.99 275.914 305.053 288.877 310.99C301.84 316.928 312.229 327.342 318.137 340.322C324.046 353.303 325.079 367.98 321.046 381.661C317.013 395.341 308.185 407.109 296.181 414.804C286.635 420.928 275.532 424.18 264.193 424.173ZM264.193 306.891C252.728 306.89 241.521 310.29 231.989 316.661C222.456 323.033 215.026 332.089 210.639 342.685C206.251 353.281 205.103 364.941 207.339 376.19C209.575 387.439 215.096 397.772 223.202 405.882C231.309 413.992 241.637 419.515 252.881 421.752C264.125 423.99 275.779 422.841 286.371 418.451C296.962 414.061 306.014 406.628 312.383 397.091C318.751 387.554 322.15 376.342 322.149 364.873C322.131 349.501 316.02 334.763 305.155 323.893C294.29 313.023 279.558 306.908 264.193 306.891Z" fill="#3F3D56"/>
<path d="M371.325 301.986C376.102 301.986 379.974 298.112 379.974 293.333C379.974 288.554 376.102 284.679 371.325 284.679C366.547 284.679 362.675 288.554 362.675 293.333C362.675 298.112 366.547 301.986 371.325 301.986Z" fill="#6C63FF"/>
<path d="M570.612 341.216H367.054C366.448 341.217 365.848 341.098 365.287 340.867C364.727 340.635 364.218 340.295 363.789 339.867C363.36 339.438 363.019 338.929 362.787 338.369C362.555 337.808 362.436 337.208 362.436 336.601C362.436 335.995 362.555 335.394 362.787 334.834C363.019 334.273 363.36 333.764 363.789 333.336C364.218 332.907 364.727 332.567 365.287 332.336C365.848 332.104 366.448 331.985 367.054 331.986H570.612C571.835 331.986 573.009 332.472 573.874 333.338C574.739 334.203 575.225 335.377 575.225 336.601C575.225 337.825 574.739 338.999 573.874 339.865C573.009 340.73 571.835 341.216 570.612 341.216Z" fill="#E6E6E6"/>
<path d="M504.297 321.602H367.054C366.448 321.602 365.848 321.484 365.287 321.252C364.727 321.02 364.218 320.68 363.789 320.252C363.36 319.823 363.019 319.314 362.787 318.754C362.555 318.194 362.436 317.593 362.436 316.986C362.436 316.38 362.555 315.779 362.787 315.219C363.019 314.659 363.36 314.15 363.789 313.721C364.218 313.292 364.727 312.952 365.287 312.721C365.848 312.489 366.448 312.37 367.054 312.371H504.297C505.52 312.373 506.692 312.859 507.556 313.725C508.42 314.59 508.905 315.763 508.905 316.986C508.905 318.209 508.42 319.383 507.556 320.248C506.692 321.113 505.52 321.6 504.297 321.602Z" fill="#E6E6E6"/>
<path d="M365.284 400.855C374.196 400.855 381.422 400.053 381.422 399.063C381.422 398.073 374.196 397.271 365.284 397.271C356.371 397.271 349.146 398.073 349.146 399.063C349.146 400.053 356.371 400.855 365.284 400.855Z" fill="#F2F2F2"/>
<path d="M221.052 190.011C229.965 190.011 237.19 189.208 237.19 188.219C237.19 187.229 229.965 186.427 221.052 186.427C212.139 186.427 204.914 187.229 204.914 188.219C204.914 189.208 212.139 190.011 221.052 190.011Z" fill="#F2F2F2"/>
</g>
<defs>
<clipPath id="clip0_659_6854">
<rect width="587" height="491" fill="white"/>
</clipPath>
</defs>
</svg>
