<svg width="697" height="491" viewBox="0 0 697 491" fill="none" xmlns="http://www.w3.org/2000/svg">
<g clip-path="url(#clip0_734_1475)">
<path d="M347.558 226.053C359.826 226.053 369.772 216.105 369.772 203.833C369.772 191.56 359.826 181.612 347.558 181.612C335.289 181.612 325.344 191.56 325.344 203.833C325.344 216.105 335.289 226.053 347.558 226.053Z" fill="#4AA764"/>
<path d="M104.913 29.2205V240.847C104.919 245.988 106.964 250.917 110.598 254.553C114.232 258.188 119.159 260.233 124.299 260.239H677.614C682.754 260.233 687.681 258.188 691.315 254.553C694.95 250.917 696.994 245.988 697 240.847V29.2205C696.994 24.0793 694.95 19.1505 691.315 15.5152C687.681 11.8799 682.754 9.83481 677.614 9.82861H124.299C119.159 9.8348 114.232 11.8799 110.598 15.5152C106.964 19.1505 104.919 24.0793 104.913 29.2205ZM106.622 29.2205C106.622 24.5308 108.484 20.0331 111.799 16.717C115.114 13.4009 119.611 11.5379 124.299 11.5379H562.285C597.561 11.5379 631.391 25.5553 656.335 50.5065C681.278 75.4577 695.292 109.299 695.292 144.585V240.847C695.292 245.537 693.429 250.035 690.114 253.351C686.799 256.667 682.303 258.53 677.614 258.53H124.299C119.611 258.53 115.114 256.667 111.799 253.351C108.484 250.035 106.622 245.537 106.622 240.847V29.2205Z" fill="#3F3D56"/>
<path d="M111.293 475.079L123.687 475.078L129.583 427.256L111.29 427.258L111.293 475.079Z" fill="#FFB6B6"/>
<path d="M110.856 488.013L148.971 488.012V487.53C148.97 483.594 147.407 479.82 144.625 477.037C141.843 474.254 138.07 472.69 134.135 472.69H134.134L127.172 467.407L114.183 472.691L110.855 472.691L110.856 488.013Z" fill="#2F2E41"/>
<path d="M57.2252 475.079L69.6198 475.078L75.5158 427.256L57.2227 427.258L57.2252 475.079Z" fill="#FFB6B6"/>
<path d="M56.7897 488.013L94.9042 488.012V487.53C94.9039 483.594 93.3408 479.82 90.5587 477.037C87.7767 474.254 84.0034 472.69 80.069 472.69H80.068L73.106 467.407L60.1162 472.691L56.7891 472.691L56.7897 488.013Z" fill="#2F2E41"/>
<path d="M142.153 214.509C142.153 214.509 154.079 251.147 151.877 255.969C149.676 260.791 145.921 257.034 149.676 260.791C153.432 264.547 156.71 260.554 153.193 266.934C149.676 273.313 144.348 325.83 142.005 328.372C139.662 330.915 136.44 330.983 139.302 333.453C142.165 335.924 145.921 330.915 142.165 335.924C138.41 340.932 128.444 456.481 128.444 456.481H108.977C108.977 456.481 104.128 450.891 106.873 447.252C109.618 443.614 106.632 442.211 106.873 439.782C107.114 437.353 106.201 432.115 106.032 429.725C105.862 427.335 102.572 370.398 110.476 337.508L96.0632 274.882L78.6041 350.574C78.6041 350.574 86.6353 414.064 78.6041 434.474C78.6041 434.474 85.079 439.867 82.2074 442.993C79.3358 446.118 76.8321 443.614 79.3358 446.118C81.8395 448.623 75.5803 457.388 75.5803 457.388L54.2992 456.136L42.254 337.508C42.254 337.508 40.2235 325.137 42.254 323.017C44.2845 320.897 44.2845 328.41 44.2845 320.897V310.879C44.2845 310.879 45.4607 249.265 45.6175 245.636C45.7743 242.008 60.7963 215.711 60.7963 215.711L142.153 214.509Z" fill="#2F2E41"/>
<path d="M141.976 87.9684V160.211C139.644 167.207 138.442 174.529 138.413 181.902C138.49 194.184 141.19 208.336 141.181 214.524C141.217 215.345 141.128 216.166 140.916 216.96C128.963 251.616 65.7135 220.122 59.9635 217.173C59.6901 217.037 59.5449 216.96 59.5449 216.96L60.7922 178.142L60.5787 166.98L59.1006 90.4127L60.4249 89.3529L72.0274 80.0971L73.1637 79.1912L76.6496 84.2763L107.723 82.1397L119.582 78.8579L123.282 80.3621L139.959 87.1479L141.976 87.9684Z" fill="#4AA764"/>
<path d="M250.273 144.738L228.497 137.537L222.648 149.406L245.942 156.201C246.704 157.41 247.787 158.382 249.07 159.009C250.354 159.635 251.787 159.891 253.208 159.748C254.629 159.605 255.982 159.068 257.115 158.198C258.247 157.327 259.115 156.158 259.62 154.822C260.125 153.485 260.247 152.035 259.973 150.632C259.699 149.23 259.039 147.932 258.068 146.885C257.097 145.837 255.853 145.081 254.476 144.702C253.099 144.323 251.643 144.335 250.273 144.738Z" fill="#FFB6B6"/>
<path d="M120.882 80.9414L120.792 81.302C119.091 88.1114 116.918 107.561 121.573 112.813C127.552 119.566 175.841 140.18 185.434 138.5C192.875 137.198 191.343 137.635 194.903 141.34C198.463 145.044 192.554 145.91 200.495 146.558C208.435 147.206 208.594 144.164 210.294 147.538C211.995 150.911 210.482 152.943 215.886 152.756C221.291 152.568 222.645 153.577 224.504 153.909C226.364 154.24 238.037 159.775 238.037 159.775C238.037 159.775 242.72 146.411 248.614 141.322C248.614 141.322 235.096 139.68 234.073 136.811C233.049 133.942 233.885 131.405 230.34 131.924C226.795 132.443 224.95 136.336 225.44 131.434C225.93 126.533 200.392 116.991 200.392 116.991C184.98 101.812 153.316 91.2673 120.882 80.9414Z" fill="#4AA764"/>
<path d="M51.793 231.823L50.8052 208.902L37.6367 207.64L39.543 231.836C38.683 232.977 38.1581 234.335 38.0274 235.757C37.8966 237.18 38.1652 238.611 38.8029 239.89C39.4406 241.168 40.4222 242.243 41.6372 242.994C42.8523 243.745 44.2527 244.142 45.681 244.141C47.1093 244.139 48.5088 243.739 49.7223 242.986C50.9358 242.232 51.9151 241.155 52.5501 239.875C53.1851 238.595 53.4507 237.164 53.3169 235.741C53.1832 234.319 52.6554 232.962 51.793 231.823Z" fill="#FFB6B6"/>
<path d="M65.5581 88.1821L65.1891 88.2256C61.7566 88.6307 58.4746 89.8665 55.6271 91.8262C52.7796 93.7858 50.4526 96.4102 48.8474 99.472C44.6547 107.457 31.3905 161.543 34.6383 168.965C37.6671 175.887 37.5418 174.185 35.3408 178.828C33.1398 183.471 30.2363 178.251 32.4453 185.908C34.6544 193.565 37.5539 192.635 35.0037 195.421C32.4534 198.208 30.0169 197.513 32.1082 202.502C34.1995 207.49 33.7366 209.115 34.0858 210.971C34.435 212.828 33.3994 225.709 33.3994 225.709C33.3994 225.709 47.5515 225.351 54.3981 229.06C54.3981 229.06 51.1413 215.834 53.4601 213.859C55.7789 211.885 58.4469 211.768 56.7048 208.636C54.9627 205.504 50.6703 205.158 55.4256 203.879C60.1809 202.599 60.047 175.33 60.047 175.33L65.5581 88.1821Z" fill="#4AA764"/>
<path d="M99.4877 58.9702C98.9324 59.0984 98.377 59.2095 97.8217 59.295C96.1252 59.5737 94.403 59.6626 92.6868 59.5599C88.2165 59.3198 83.9001 57.8458 80.2162 55.3015C76.5323 52.7571 73.6249 49.2418 71.8165 45.1453C70.008 41.0489 69.3692 36.5315 69.9709 32.094C70.5725 27.6566 72.3911 23.4725 75.225 20.0059C78.0588 16.5392 81.7972 13.9255 86.0255 12.4546C90.2538 10.9836 94.8068 10.7129 99.1795 11.6725C103.552 12.6321 107.574 14.7844 110.798 17.8909C114.023 20.9973 116.324 24.9364 117.447 29.2713C117.498 29.4679 117.549 29.6559 117.592 29.8525C119.05 36.1152 117.962 42.7006 114.567 48.1609C111.172 53.6211 105.748 57.5092 99.4877 58.9702Z" fill="#FFB6B6"/>
<path d="M77.1182 56.1094C73.7472 53.4704 73.42 48.4402 70.5433 45.2693C65.7337 39.9678 63.474 34.2641 65.9934 27.9822C68.2219 22.4261 67.7482 15.5962 72.5477 12.0198C70.1904 11.1663 69.6358 9.39369 71.7156 9.36095C73.1182 9.33889 78.3468 12.0203 75.8309 8.67996C73.315 5.33959 78.0775 6.65811 77.7625 5.29078C77.4474 3.92345 75.4275 3.16613 74.5367 4.24999C77.3809 0.916359 83.5921 1.62709 85.6102 5.51709C88.4451 1.26719 91.4542 -1.65715 95.7922 1.03983C100.053 3.68867 99.997 6.96302 104.579 6.17611C106.733 5.80619 106.936 9.87671 108.407 11.493C109.879 13.1093 112.03 14.3602 114.177 13.9543C116.324 13.5484 117.966 10.8714 116.763 9.04659L121.824 20.5965L123.864 18.0937C127.105 20.2066 126.041 25.72 122.778 27.7997C119.516 29.8794 113.289 25.0726 111.519 28.5133C108.728 33.937 102.181 31.1982 97.6842 27.3652C92.2317 22.7168 85.6504 36.8504 88.2769 43.5171C85.5517 40.8401 80.5102 43.0617 79.0984 46.6117C77.6866 50.1618 78.7218 54.1615 79.7684 57.836L77.1182 56.1094Z" fill="#2F2E41"/>
<path d="M413.879 135.911H388.233C387.567 135.911 386.929 135.646 386.459 135.175C385.988 134.704 385.723 134.066 385.723 133.401V108.059C385.723 107.393 385.988 106.755 386.459 106.285C386.929 105.814 387.567 105.549 388.233 105.548H413.879C414.545 105.549 415.183 105.814 415.653 106.285C416.124 106.755 416.389 107.393 416.389 108.059V133.401C416.389 134.066 416.124 134.704 415.653 135.175C415.183 135.646 414.545 135.911 413.879 135.911Z" fill="#F2F2F2"/>
<path d="M418.149 138.047H392.502C391.837 138.046 391.199 137.782 390.728 137.311C390.258 136.84 389.993 136.202 389.992 135.536V110.195C389.993 109.529 390.258 108.891 390.728 108.42C391.199 107.95 391.837 107.685 392.502 107.684H418.149C418.814 107.685 419.452 107.95 419.923 108.42C420.393 108.891 420.658 109.529 420.659 110.195V135.536C420.658 136.202 420.393 136.84 419.923 137.311C419.452 137.782 418.814 138.046 418.149 138.047Z" fill="#F2F2F2"/>
<path d="M388.77 106.296C388.16 106.296 387.576 106.539 387.144 106.97C386.713 107.402 386.471 107.987 386.471 108.597V132.863C386.471 133.473 386.713 134.058 387.144 134.49C387.576 134.921 388.16 135.163 388.77 135.163H404.453C407.42 135.163 410.266 133.984 412.364 131.885C414.463 129.786 415.642 126.939 415.642 123.971V108.597C415.642 107.987 415.399 107.402 414.968 106.97C414.537 106.539 413.952 106.296 413.342 106.296H388.77Z" fill="white"/>
<path d="M407.925 113.661H394.133C394.007 113.661 393.885 113.611 393.796 113.521C393.707 113.432 393.656 113.31 393.656 113.184C393.656 113.057 393.707 112.936 393.796 112.846C393.885 112.757 394.007 112.707 394.133 112.707H407.925C408.052 112.707 408.173 112.757 408.262 112.846C408.352 112.936 408.402 113.057 408.402 113.184C408.402 113.31 408.352 113.432 408.262 113.521C408.173 113.611 408.052 113.661 407.925 113.661Z" fill="#F2F2F2"/>
<path d="M407.925 123.839H394.133C394.007 123.839 393.885 123.789 393.796 123.7C393.707 123.61 393.656 123.489 393.656 123.362C393.656 123.235 393.707 123.114 393.796 123.025C393.885 122.935 394.007 122.885 394.133 122.885H407.925C408.052 122.885 408.173 122.935 408.262 123.025C408.352 123.114 408.402 123.235 408.402 123.362C408.402 123.489 408.352 123.61 408.262 123.7C408.173 123.789 408.052 123.839 407.925 123.839Z" fill="#F2F2F2"/>
<path d="M413.525 118.753H388.533C388.406 118.753 388.285 118.703 388.195 118.614C388.106 118.524 388.056 118.403 388.056 118.276C388.056 118.15 388.106 118.028 388.195 117.939C388.285 117.849 388.406 117.799 388.533 117.799H413.525C413.652 117.799 413.773 117.849 413.863 117.939C413.952 118.028 414.002 118.15 414.002 118.276C414.002 118.403 413.952 118.524 413.863 118.614C413.773 118.703 413.652 118.753 413.525 118.753Z" fill="#F2F2F2"/>
<path d="M413.78 127.978H404.752C404.625 127.978 404.504 127.928 404.414 127.838C404.325 127.749 404.274 127.627 404.274 127.501C404.274 127.374 404.325 127.253 404.414 127.163C404.504 127.074 404.625 127.023 404.752 127.023H413.78C413.907 127.023 414.028 127.074 414.118 127.163C414.207 127.253 414.257 127.374 414.257 127.501C414.257 127.627 414.207 127.749 414.118 127.838C414.028 127.928 413.907 127.978 413.78 127.978Z" fill="#F2F2F2"/>
<path d="M336.532 151.775L336.199 151.611C316.738 141.986 295.684 141.995 271.837 151.637L271.197 150.052C295.385 140.273 316.792 140.227 336.622 149.914C364.529 139.29 382.469 121.286 389.949 96.3926L391.586 96.885C383.913 122.417 365.507 140.84 336.88 151.644L336.532 151.775Z" fill="#F2F2F2"/>
<path d="M417.717 151.775L417.382 151.618C398.255 142.642 377.19 142.65 352.981 151.646L352.386 150.043C376.903 140.933 398.296 140.889 417.772 149.914C449.018 137.425 466.956 119.452 471.093 96.4873L472.775 96.7903C468.51 120.459 450.102 138.912 418.061 151.639L417.717 151.775Z" fill="#F2F2F2"/>
<path d="M481.697 150.866L481.486 150.775C465.726 143.998 445.222 144.012 416.962 150.821L416.562 149.159C445.073 142.29 465.86 142.273 481.948 149.114C513.884 145.208 531.294 127.727 535.164 95.6816L536.861 95.887C532.873 128.905 514.903 146.88 481.925 150.838L481.697 150.866Z" fill="#F2F2F2"/>
<path d="M397.966 100.42C401.741 100.42 404.801 97.3593 404.801 93.5832C404.801 89.8072 401.741 86.7461 397.966 86.7461C394.191 86.7461 391.131 89.8072 391.131 93.5832C391.131 97.3593 394.191 100.42 397.966 100.42Z" fill="#4AA764"/>
<path d="M474.86 100.42C478.635 100.42 481.696 97.3593 481.696 93.5832C481.696 89.8072 478.635 86.7461 474.86 86.7461C471.086 86.7461 468.025 89.8072 468.025 93.5832C468.025 97.3593 471.086 100.42 474.86 100.42Z" fill="#4AA764"/>
<path d="M536.376 99.5659C540.151 99.5659 543.211 96.5048 543.211 92.7288C543.211 88.9527 540.151 85.8916 536.376 85.8916C532.601 85.8916 529.541 88.9527 529.541 92.7288C529.541 96.5048 532.601 99.5659 536.376 99.5659Z" fill="#4AA764"/>
<path d="M345.842 203.855H273.995C272.131 203.853 270.344 203.111 269.026 201.792C267.707 200.474 266.966 198.686 266.964 196.821V125.829C266.966 123.964 267.707 122.176 269.026 120.858C270.344 119.539 272.131 118.797 273.995 118.795H345.842C347.706 118.797 349.494 119.539 350.812 120.858C352.13 122.176 352.872 123.964 352.874 125.829V196.821C352.872 198.686 352.13 200.474 350.812 201.792C349.494 203.111 347.706 203.853 345.842 203.855Z" fill="#E6E6E6"/>
<path d="M333.88 197.872H262.034C260.169 197.87 258.382 197.128 257.064 195.81C255.746 194.491 255.004 192.703 255.002 190.838V119.847C255.004 117.982 255.746 116.194 257.064 114.875C258.382 113.557 260.169 112.815 262.034 112.813H333.88C335.744 112.815 337.532 113.557 338.85 114.875C340.168 116.194 340.91 117.982 340.912 119.847V190.838C340.91 192.703 340.168 194.491 338.85 195.81C337.532 197.128 335.744 197.87 333.88 197.872Z" fill="#E6E6E6"/>
<path d="M275.413 114.909C270.555 114.909 265.897 116.839 262.461 120.275C259.026 123.711 257.097 128.372 257.097 133.231V189.332C257.097 190.179 257.263 191.017 257.587 191.798C257.911 192.58 258.385 193.291 258.984 193.889C259.582 194.487 260.292 194.962 261.074 195.286C261.855 195.61 262.693 195.776 263.539 195.776H307.471C311.587 195.776 315.663 194.965 319.466 193.39C323.269 191.814 326.725 189.504 329.635 186.593C332.546 183.681 334.855 180.225 336.43 176.421C338.005 172.617 338.816 168.539 338.816 164.422V121.353C338.816 119.644 338.137 118.005 336.929 116.796C335.721 115.588 334.083 114.909 332.374 114.909H275.413Z" fill="white"/>
<path d="M317.199 135.539H278.563C278.209 135.539 277.869 135.398 277.618 135.147C277.367 134.897 277.227 134.557 277.227 134.202C277.227 133.847 277.367 133.507 277.618 133.256C277.869 133.006 278.209 132.865 278.563 132.865H317.199C317.554 132.865 317.894 133.006 318.144 133.256C318.395 133.507 318.536 133.847 318.536 134.202C318.536 134.557 318.395 134.897 318.144 135.147C317.894 135.398 317.554 135.539 317.199 135.539Z" fill="#E6E6E6"/>
<path d="M317.199 164.053H278.564C278.388 164.054 278.214 164.019 278.051 163.952C277.889 163.885 277.741 163.787 277.616 163.663C277.492 163.539 277.393 163.391 277.326 163.229C277.258 163.066 277.224 162.892 277.224 162.716C277.224 162.54 277.258 162.366 277.326 162.204C277.393 162.041 277.492 161.894 277.616 161.769C277.741 161.645 277.889 161.547 278.051 161.48C278.214 161.413 278.388 161.378 278.564 161.379H317.199C317.553 161.38 317.893 161.521 318.142 161.772C318.392 162.022 318.533 162.362 318.533 162.716C318.533 163.07 318.392 163.41 318.142 163.66C317.893 163.911 317.553 164.052 317.199 164.053Z" fill="#E6E6E6"/>
<path d="M332.889 149.806H262.875C262.52 149.806 262.18 149.665 261.93 149.414C261.679 149.163 261.538 148.823 261.538 148.468C261.538 148.114 261.679 147.774 261.93 147.523C262.18 147.272 262.52 147.131 262.875 147.131H332.889C333.243 147.131 333.583 147.272 333.834 147.523C334.085 147.774 334.226 148.114 334.226 148.468C334.226 148.823 334.085 149.163 333.834 149.414C333.583 149.665 333.243 149.806 332.889 149.806Z" fill="#E6E6E6"/>
<path d="M333.603 175.647H308.31C308.135 175.647 307.961 175.612 307.799 175.545C307.637 175.478 307.489 175.379 307.365 175.255C307.241 175.131 307.143 174.984 307.075 174.822C307.008 174.659 306.974 174.485 306.974 174.31C306.974 174.134 307.008 173.96 307.075 173.798C307.143 173.636 307.241 173.488 307.365 173.364C307.489 173.24 307.637 173.142 307.799 173.074C307.961 173.007 308.135 172.973 308.31 172.973H333.603C333.958 172.973 334.298 173.114 334.548 173.364C334.799 173.615 334.94 173.955 334.94 174.31C334.94 174.664 334.799 175.005 334.548 175.255C334.298 175.506 333.958 175.647 333.603 175.647Z" fill="#E6E6E6"/>
<path d="M504.444 132.493H478.797C478.132 132.492 477.494 132.227 477.023 131.757C476.553 131.286 476.288 130.648 476.287 129.982V104.641C476.288 103.975 476.553 103.337 477.023 102.866C477.494 102.395 478.132 102.131 478.797 102.13H504.444C505.109 102.131 505.747 102.395 506.218 102.866C506.688 103.337 506.953 103.975 506.954 104.641V129.982C506.953 130.648 506.688 131.286 506.218 131.757C505.747 132.227 505.109 132.492 504.444 132.493Z" fill="#F2F2F2"/>
<path d="M508.713 134.629H483.067C482.401 134.628 481.763 134.363 481.293 133.892C480.822 133.422 480.557 132.784 480.557 132.118V106.776C480.557 106.111 480.822 105.473 481.293 105.002C481.763 104.531 482.401 104.266 483.067 104.266H508.713C509.379 104.266 510.017 104.531 510.487 105.002C510.958 105.473 511.223 106.111 511.223 106.776V132.118C511.223 132.784 510.958 133.422 510.487 133.892C510.017 134.363 509.379 134.628 508.713 134.629Z" fill="#F2F2F2"/>
<path d="M479.335 102.878C478.725 102.878 478.14 103.12 477.709 103.552C477.277 103.983 477.035 104.568 477.035 105.178V129.444C477.035 130.055 477.277 130.64 477.709 131.071C478.14 131.502 478.725 131.745 479.335 131.745H495.017C497.985 131.745 500.83 130.566 502.929 128.467C505.027 126.368 506.206 123.521 506.206 120.552V105.178C506.206 104.568 505.964 103.983 505.532 103.552C505.101 103.12 504.516 102.878 503.906 102.878H479.335Z" fill="white"/>
<path d="M498.489 110.242H484.698C484.571 110.242 484.45 110.192 484.36 110.102C484.271 110.013 484.221 109.892 484.221 109.765C484.221 109.638 484.271 109.517 484.36 109.427C484.45 109.338 484.571 109.288 484.698 109.288H498.489C498.616 109.288 498.737 109.338 498.827 109.427C498.916 109.517 498.967 109.638 498.967 109.765C498.967 109.892 498.916 110.013 498.827 110.102C498.737 110.192 498.616 110.242 498.489 110.242Z" fill="#F2F2F2"/>
<path d="M498.489 120.421H484.698C484.571 120.421 484.45 120.371 484.36 120.281C484.271 120.192 484.221 120.07 484.221 119.944C484.221 119.817 484.271 119.696 484.36 119.606C484.45 119.517 484.571 119.466 484.698 119.466H498.489C498.616 119.466 498.737 119.517 498.827 119.606C498.916 119.696 498.967 119.817 498.967 119.944C498.967 120.07 498.916 120.192 498.827 120.281C498.737 120.371 498.616 120.421 498.489 120.421Z" fill="#F2F2F2"/>
<path d="M504.09 115.335H479.097C478.971 115.335 478.849 115.285 478.76 115.195C478.67 115.106 478.62 114.984 478.62 114.858C478.62 114.731 478.67 114.61 478.76 114.52C478.849 114.431 478.971 114.38 479.097 114.38H504.09C504.216 114.38 504.338 114.431 504.427 114.52C504.517 114.61 504.567 114.731 504.567 114.858C504.567 114.984 504.517 115.106 504.427 115.195C504.338 115.285 504.216 115.335 504.09 115.335Z" fill="#F2F2F2"/>
<path d="M504.345 124.559H495.316C495.189 124.559 495.068 124.509 494.979 124.419C494.889 124.33 494.839 124.208 494.839 124.082C494.839 123.955 494.889 123.834 494.979 123.744C495.068 123.655 495.189 123.604 495.316 123.604H504.345C504.471 123.604 504.593 123.655 504.682 123.744C504.772 123.834 504.822 123.955 504.822 124.082C504.822 124.208 504.772 124.33 504.682 124.419C504.593 124.509 504.471 124.559 504.345 124.559Z" fill="#F2F2F2"/>
<path d="M210.443 476.186C210.046 476.205 209.653 476.1 209.317 475.888C208.981 475.675 208.719 475.364 208.566 474.997C208.412 474.63 208.375 474.225 208.46 473.837C208.544 473.448 208.746 473.095 209.038 472.825L209.171 472.297C209.154 472.254 209.136 472.212 209.118 472.17C208.718 471.224 208.048 470.418 207.191 469.853C206.335 469.288 205.33 468.988 204.304 468.992C203.278 468.996 202.276 469.303 201.424 469.875C200.571 470.446 199.907 471.257 199.514 472.205C197.943 475.99 195.943 479.781 195.451 483.782C195.234 485.551 195.325 487.344 195.721 489.082C192.031 481.031 190.116 472.281 190.103 463.424C190.102 461.202 190.226 458.981 190.473 456.773C190.677 454.962 190.96 453.165 191.323 451.38C193.3 441.696 197.546 432.619 203.711 424.895C206.696 423.266 209.109 420.761 210.626 417.719C211.176 416.625 211.564 415.457 211.779 414.252C211.443 414.296 210.51 409.168 210.764 408.853C210.295 408.141 209.455 407.787 208.943 407.093C206.395 403.637 202.884 404.24 201.052 408.936C197.137 410.913 197.099 414.191 199.501 417.343C201.029 419.349 201.239 422.063 202.58 424.21C202.442 424.387 202.299 424.558 202.161 424.735C199.639 427.978 197.441 431.462 195.598 435.134C196.046 431.02 195.512 426.858 194.038 422.99C192.544 419.386 189.745 416.35 187.279 413.235C186.627 412.397 185.742 411.773 184.735 411.439C183.728 411.105 182.644 411.078 181.622 411.36C180.599 411.642 179.683 412.221 178.989 413.023C178.295 413.826 177.855 414.817 177.724 415.87C177.719 415.916 177.714 415.962 177.709 416.007C178.075 416.214 178.434 416.433 178.784 416.665C179.225 416.96 179.566 417.381 179.764 417.873C179.961 418.364 180.006 418.904 179.891 419.422C179.776 419.939 179.508 420.41 179.122 420.773C178.735 421.135 178.248 421.372 177.724 421.453L177.67 421.461C177.801 422.781 178.032 424.09 178.36 425.375C175.198 437.61 182.026 442.066 191.775 442.266C191.991 442.377 192.2 442.487 192.416 442.592C190.564 447.84 189.403 453.306 188.961 458.854C188.711 462.127 188.726 465.415 189.005 468.685L188.989 468.569C188.282 464.932 186.343 461.651 183.498 459.279C179.272 455.807 173.303 454.528 168.744 451.737C168.26 451.426 167.696 451.26 167.121 451.259C166.545 451.257 165.981 451.421 165.495 451.729C165.009 452.038 164.621 452.479 164.378 453.001C164.134 453.523 164.045 454.104 164.121 454.675L164.14 454.797C164.819 455.074 165.481 455.392 166.121 455.752C166.487 455.958 166.845 456.178 167.196 456.41C167.637 456.704 167.978 457.125 168.175 457.617C168.373 458.109 168.417 458.649 168.303 459.166C168.188 459.684 167.92 460.154 167.533 460.517C167.146 460.879 166.659 461.116 166.136 461.197L166.082 461.205C166.043 461.211 166.01 461.216 165.972 461.222C167.133 463.995 168.762 466.548 170.789 468.768C172.767 479.448 181.26 480.462 190.346 477.352H190.352C191.349 481.685 192.793 485.903 194.661 489.937H210.058C210.113 489.766 210.162 489.589 210.212 489.418C208.787 489.508 207.356 489.423 205.952 489.164C207.094 487.762 208.237 486.349 209.379 484.947C209.404 484.921 209.428 484.893 209.451 484.864C210.03 484.147 210.615 483.435 211.194 482.717L211.195 482.716C211.226 480.516 210.973 478.322 210.443 476.186Z" fill="#F2F2F2"/>
<path d="M4.50247e-06 489.983C-0.000393705 490.117 0.0256255 490.249 0.0765829 490.373C0.12754 490.496 0.202422 490.608 0.296919 490.703C0.391415 490.797 0.503667 490.872 0.627207 490.923C0.750747 490.974 0.88314 491 1.01677 491H217.423C217.693 491 217.952 490.893 218.142 490.702C218.333 490.511 218.44 490.253 218.44 489.983C218.44 489.713 218.333 489.454 218.142 489.264C217.952 489.073 217.693 488.966 217.423 488.966H1.01677C0.883142 488.965 0.750745 488.991 0.627207 489.042C0.503669 489.093 0.391427 489.168 0.296932 489.263C0.202436 489.357 0.127555 489.47 0.076596 489.593C0.0256369 489.717 -0.000389169 489.849 4.50247e-06 489.983Z" fill="#CCCCCC"/>
<path d="M92.6865 59.5603L97.8213 59.2954C96.1249 59.5741 94.4027 59.663 92.6865 59.5603Z" fill="#F2F2F2"/>
<path d="M123.283 80.3622L122.437 81.4391L120.164 84.3278L100.539 109.292L72.0283 80.0973L73.1647 79.1914L79.2137 66.329L110.288 64.1924L119.583 78.8581L123.283 80.3622Z" fill="#3F3D56"/>
</g>
<defs>
<clipPath id="clip0_734_1475">
<rect width="697" height="491" fill="white"/>
</clipPath>
</defs>
</svg>
