<svg width="683" height="410" viewBox="0 0 683 410" fill="none" xmlns="http://www.w3.org/2000/svg">
<g clip-path="url(#clip0_75_1081)">
<path d="M35.635 409.084C35.5893 408.883 31.1704 388.764 40.195 372.054C49.2196 355.345 68.4835 347.976 68.677 347.903L69.5574 347.573L69.7654 348.489C69.8111 348.69 74.23 368.809 65.2054 385.519C56.1812 402.228 36.917 409.597 36.7234 409.67L35.8426 410L35.635 409.084ZM68.35 349.809C64.4913 351.466 49.2621 358.719 41.6401 372.832C34.0172 386.946 36.3171 403.637 37.0504 407.764C40.9075 406.111 56.1307 398.869 63.7604 384.741C71.3828 370.628 69.0838 353.939 68.35 349.809Z" fill="#F1F1F1"/>
<path d="M58.3089 379.658C42.0912 389.399 35.8452 408.749 35.8452 408.749C35.8452 408.749 55.8934 412.305 72.111 402.563C88.3287 392.821 94.5747 373.471 94.5747 373.471C94.5747 373.471 74.5266 369.916 58.3089 379.658Z" fill="#F1F1F1"/>
<path d="M303.905 223.49C304.153 222.215 304.117 220.902 303.801 219.643C303.485 218.383 302.896 217.208 302.076 216.201C301.256 215.193 300.225 214.378 299.055 213.811C297.885 213.245 296.605 212.941 295.305 212.922L287.795 194.065L275.204 195.827L286.185 222.308C286.297 224.49 287.208 226.556 288.744 228.114C290.28 229.671 292.335 230.612 294.519 230.757C296.703 230.903 298.865 230.244 300.595 228.904C302.325 227.565 303.503 225.638 303.905 223.49Z" fill="#9F616A"/>
<path d="M280.71 216.864L276.808 207.576L252.498 161.373L253.82 75.8816L254.073 75.848C269.629 73.796 280.154 145.358 280.595 148.406L295.955 200.855L299.611 212.416L280.71 216.864Z" fill="#16A34A"/>
<path d="M243.355 397.137L255.175 397.136L260.798 351.616L243.353 351.617L243.355 397.137Z" fill="#9F616A"/>
<path d="M240.34 393.284L263.618 393.283H263.619C267.553 393.283 271.326 394.843 274.108 397.621C276.89 400.398 278.453 404.165 278.453 408.093V408.575L240.341 408.576L240.34 393.284Z" fill="#2F2E41"/>
<path d="M134.674 379.156L144.373 385.903L175.052 351.768L160.739 341.81L134.674 379.156Z" fill="#9F616A"/>
<path d="M134.408 374.274L153.506 387.561L153.507 387.562C156.734 389.808 158.936 393.242 159.628 397.109C160.32 400.976 159.445 404.958 157.196 408.181L156.92 408.576L125.651 386.821L134.408 374.274Z" fill="#2F2E41"/>
<path d="M236.859 386.437L236.348 301.046L228.911 247.352L215.045 294.571L215.018 294.609L164.77 367.443L145.218 357.553L145.325 357.298C146.52 354.461 174.676 287.817 182.244 287.817C182.905 287.863 183.567 287.749 184.173 287.482C184.78 287.216 185.313 286.807 185.725 286.29C187.947 283.328 186.138 277.044 186.119 276.981C183.953 268.012 189.4 264.957 190.485 264.447L193.403 204.305L193.705 204.326L272.813 209.866L269.494 285.06L262.355 383.58L262.11 383.608L236.859 386.437Z" fill="#2F2E41"/>
<path d="M274.022 223.192L273.68 223.165L188.601 216.318L188.811 188.212L192.975 114.826L192.999 114.775L209.957 78.0172L221.978 72.5824L239.517 71.6609L239.56 71.6716L255.566 75.6309L272.217 194.97L274.022 223.192Z" fill="#16A34A"/>
<path d="M242.266 62.2405C253.121 56.3159 257.11 42.7269 251.176 31.8888C245.242 21.0506 231.632 17.0675 220.777 22.9922C209.921 28.9168 205.932 42.5058 211.866 53.3439C217.8 64.1821 231.41 68.1652 242.266 62.2405Z" fill="#9F616A"/>
<path d="M208.993 48.2305V39.5166C208.993 39.5166 201.955 31.2402 209.697 29.1554C209.697 29.1554 211.809 8.30708 230.108 18.0363C230.108 18.0363 255.447 13.8666 252.631 28.4604C252.631 28.4604 258.966 24.6505 256.854 34.3797L252.77 50.0517C252.77 50.0517 254.743 39.6992 248.408 38.3093L244.889 36.2244C244.889 36.2244 235.035 45.9536 220.255 34.1396C220.255 34.1396 213.92 32.6301 214.624 38.8846C215.328 45.1391 208.993 48.2305 208.993 48.2305Z" fill="#2F2E41"/>
<path d="M229.189 202.204C229.203 200.906 228.932 199.62 228.395 198.438C227.857 197.256 227.067 196.205 226.079 195.361C225.091 194.517 223.93 193.899 222.677 193.551C221.425 193.204 220.111 193.134 218.828 193.348L208.051 176.143L195.981 180.132L211.543 204.216C212.046 206.343 213.313 208.212 215.104 209.469C216.895 210.726 219.086 211.283 221.261 211.035C223.436 210.787 225.445 209.751 226.906 208.123C228.367 206.496 229.179 204.389 229.189 202.204Z" fill="#9F616A"/>
<path d="M201.353 196.78L181.854 157.256L181.872 157.16C181.95 156.722 189.799 113.212 195.802 97.2184C201.843 81.1239 210.111 77.8925 210.46 77.7628L210.635 77.698L218.049 84.7984L207.779 153.242L218.849 186.251L201.353 196.78Z" fill="#16A34A"/>
<path d="M683 0H645.247V37.6931H683V0Z" fill="#F1F1F1"/>
<path d="M387.544 146.675H349.792V184.369H387.544V146.675Z" fill="#F1F1F1"/>
<path d="M370.981 167.851H669.453V16.9897H370.981V167.851Z" fill="white"/>
<path d="M671.915 170.31H368.519V14.5314H671.915V170.31ZM373.444 165.393H666.991V19.4479H373.444V165.393Z" fill="#E5E5E5"/>
<path d="M636.448 69.9092H406.808V77.5127H636.448V69.9092Z" fill="#E5E5E5"/>
<path d="M636.448 88.3486H406.808V95.9521H636.448V88.3486Z" fill="#E5E5E5"/>
<path d="M636.448 115.575H593.771V122.173H636.448V115.575Z" fill="#16A34A"/>
<path d="M313.511 409.967H0.82071C0.603044 409.967 0.394293 409.881 0.24038 409.727C0.0864668 409.573 0 409.365 0 409.148C0 408.93 0.0864668 408.722 0.24038 408.568C0.394293 408.414 0.603044 408.328 0.82071 408.328H313.511C313.729 408.328 313.938 408.414 314.092 408.568C314.246 408.722 314.332 408.93 314.332 409.148C314.332 409.365 314.246 409.573 314.092 409.727C313.938 409.881 313.729 409.967 313.511 409.967Z" fill="#CBCBCB"/>
</g>
<defs>
<clipPath id="clip0_75_1081">
<rect width="683" height="410" fill="white"/>
</clipPath>
</defs>
</svg>
