<svg width="876" height="526" viewBox="0 0 876 526" fill="none" xmlns="http://www.w3.org/2000/svg">
<g clip-path="url(#clip0_130_1206)">
<path d="M45.7046 524.825C45.646 524.567 39.9784 498.756 51.5532 477.318C63.1279 455.881 87.8353 446.427 88.0835 446.334L89.2127 445.911L89.4795 447.086C89.5381 447.344 95.2057 473.155 83.631 494.593C72.0567 516.03 47.3488 525.484 47.1006 525.577L45.9709 526L45.7046 524.825ZM87.6641 448.779C82.715 450.905 63.1824 460.211 53.4066 478.316C43.6297 496.423 46.5794 517.836 47.52 523.132C52.467 521.011 71.9919 511.72 81.7776 493.595C91.5539 475.489 88.6052 454.078 87.6641 448.779Z" fill="#F1F1F1"/>
<path d="M74.7855 487.073C53.9851 499.571 45.9741 524.395 45.9741 524.395C45.9741 524.395 71.6874 528.957 92.4878 516.459C113.288 503.961 121.299 479.136 121.299 479.136C121.299 479.136 95.5859 474.575 74.7855 487.073Z" fill="#F1F1F1"/>
<path d="M389.782 286.721C390.099 285.086 390.054 283.401 389.648 281.785C389.243 280.17 388.488 278.663 387.436 277.37C386.384 276.077 385.062 275.031 383.561 274.304C382.061 273.577 380.419 273.188 378.751 273.163L369.119 248.971L352.971 251.232L367.054 285.204C367.198 288.005 368.366 290.655 370.336 292.653C372.306 294.651 374.942 295.858 377.744 296.045C380.545 296.232 383.318 295.386 385.537 293.667C387.756 291.949 389.266 289.477 389.782 286.721Z" fill="#9F616A"/>
<path d="M360.032 278.221L355.028 266.305L323.848 207.03L325.543 97.3506L325.869 97.3074C345.82 94.6749 359.319 186.484 359.884 190.393L379.584 257.682L384.274 272.514L360.032 278.221Z" fill="#16A34A"/>
<path d="M312.122 509.497L327.282 509.496L334.493 451.098L312.119 451.099L312.122 509.497Z" fill="#9F616A"/>
<path d="M308.255 504.554L338.11 504.553H338.112C343.158 504.553 347.997 506.555 351.565 510.119C355.133 513.682 357.138 518.515 357.138 523.554V524.172L308.256 524.173L308.255 504.554Z" fill="#2F2E41"/>
<path d="M172.73 486.43L185.169 495.086L224.519 451.293L206.161 438.517L172.73 486.43Z" fill="#9F616A"/>
<path d="M172.388 480.166L196.883 497.213L196.884 497.214C201.024 500.095 203.848 504.501 204.735 509.462C205.623 514.422 204.5 519.532 201.616 523.667L201.262 524.173L161.157 496.263L172.388 480.166Z" fill="#2F2E41"/>
<path d="M303.79 495.77L303.135 386.219L293.596 317.335L275.812 377.913L275.778 377.962L211.331 471.403L186.254 458.714L186.391 458.388C187.924 454.747 224.035 369.248 233.742 369.248C234.589 369.308 235.439 369.16 236.217 368.819C236.995 368.477 237.678 367.952 238.207 367.289C241.056 363.489 238.736 355.428 238.713 355.347C235.934 343.84 242.92 339.921 244.312 339.267L248.054 262.108L248.442 262.135L349.904 269.242L345.648 365.711L336.491 492.105L336.177 492.14L303.79 495.77Z" fill="#2F2E41"/>
<path d="M351.455 286.34L351.016 286.304L241.896 277.52L242.165 241.462L247.506 147.313L247.536 147.248L269.287 100.09L284.705 93.118L307.2 91.9357L307.254 91.9495L327.783 97.029L349.139 250.132L351.455 286.34Z" fill="#16A34A"/>
<path d="M310.724 79.8501C324.647 72.2491 329.764 54.8155 322.153 40.911C314.542 27.0064 297.086 21.8963 283.163 29.4973C269.24 37.0982 264.123 54.5318 271.734 68.4364C279.345 82.3409 296.802 87.451 310.724 79.8501Z" fill="#9F616A"/>
<path d="M268.05 61.8762V50.6969C268.05 50.6969 259.023 40.0789 268.953 37.4042C268.953 37.4042 271.661 10.6574 295.132 23.1392C295.132 23.1392 327.63 17.7898 324.019 36.5126C324.019 36.5126 332.143 31.6247 329.435 44.1066L324.197 64.2126C324.197 64.2126 326.727 50.9312 318.602 49.148L314.089 46.4733C314.089 46.4733 301.451 58.9551 282.493 43.7986C282.493 43.7986 274.369 41.862 275.272 49.8861C276.174 57.9101 268.05 61.8762 268.05 61.8762Z" fill="#2F2E41"/>
<path d="M293.952 259.413C293.97 257.747 293.623 256.098 292.934 254.581C292.245 253.065 291.231 251.717 289.964 250.634C288.697 249.551 287.208 248.758 285.601 248.312C283.994 247.866 282.309 247.777 280.664 248.052L266.841 225.979L251.361 231.097L271.32 261.994C271.966 264.723 273.591 267.121 275.888 268.734C278.185 270.346 280.995 271.061 283.784 270.743C286.574 270.425 289.15 269.095 291.024 267.007C292.898 264.919 293.94 262.217 293.952 259.413Z" fill="#9F616A"/>
<path d="M258.25 252.455L233.242 201.748L233.264 201.625C233.365 201.063 243.432 145.242 251.131 124.724C258.878 104.076 269.484 99.9304 269.931 99.764L270.155 99.6808L279.664 108.79L266.492 196.598L280.691 238.947L258.25 252.455Z" fill="#16A34A"/>
<path d="M876 0H827.579V48.3575H876V0Z" fill="#F1F1F1"/>
<path d="M497.055 188.174H448.635V236.531H497.055V188.174Z" fill="#F1F1F1"/>
<path d="M475.812 215.341H858.625V21.7966H475.812V215.341Z" fill="white"/>
<path d="M861.783 218.495H472.654V18.6427H861.783V218.495ZM478.97 212.187H855.467V24.9502H478.97V212.187Z" fill="#E5E5E5"/>
<path d="M816.293 89.6884H521.762V99.4431H816.293V89.6884Z" fill="#E5E5E5"/>
<path d="M816.293 113.345H521.762V123.099H816.293V113.345Z" fill="#E5E5E5"/>
<path d="M816.293 148.274H761.557V156.74H816.293V148.274Z" fill="#16A34A"/>
<path d="M402.102 525.957H1.05262C0.773451 525.957 0.505711 525.847 0.308306 525.65C0.1109 525.452 0 525.185 0 524.906C0 524.627 0.1109 524.36 0.308306 524.163C0.505711 523.966 0.773451 523.855 1.05262 523.855H402.102C402.381 523.855 402.649 523.966 402.847 524.163C403.044 524.36 403.155 524.627 403.155 524.906C403.155 525.185 403.044 525.452 402.847 525.65C402.649 525.847 402.381 525.957 402.102 525.957Z" fill="#CBCBCB"/>
</g>
<defs>
<clipPath id="clip0_130_1206">
<rect width="876" height="526" fill="white"/>
</clipPath>
</defs>
</svg>
