<svg width="429" height="412" viewBox="0 0 429 412" fill="none" xmlns="http://www.w3.org/2000/svg">
<g clip-path="url(#clip0_101_1081)">
<path d="M361.045 97.6511H358.791V35.7984C358.791 26.3041 355.022 17.1986 348.312 10.4851C341.603 3.77161 332.503 4.66971e-09 323.014 4.66971e-09H192.046C187.348 -7.59245e-05 182.695 0.925802 178.355 2.72477C174.014 4.52374 170.07 7.16057 166.748 10.4847C163.425 13.8088 160.79 17.7552 158.992 22.0984C157.194 26.4417 156.268 31.0967 156.268 35.7978V375.126C156.268 384.621 160.038 393.726 166.747 400.439C173.457 407.153 182.557 410.925 192.045 410.925H323.012C332.501 410.925 341.601 407.153 348.31 400.439C355.02 393.726 358.789 384.621 358.789 375.126V141.679H361.043L361.045 97.6511Z" fill="#3F3D56"/>
<path d="M351.452 33.4006V377.523C351.451 384.721 348.593 391.625 343.507 396.715C338.42 401.806 331.521 404.667 324.327 404.67H190.672C183.475 404.671 176.573 401.811 171.482 396.72C166.392 391.63 163.531 384.724 163.529 377.523V33.4006C163.531 26.1996 166.392 19.2943 171.482 14.2035C176.572 9.11269 183.474 6.25329 190.671 6.25421H206.884C206.088 8.2131 205.785 10.3377 206.002 12.4412C206.219 14.5447 206.948 16.5627 208.127 18.3179C209.306 20.0731 210.897 21.5117 212.762 22.5073C214.626 23.5029 216.707 24.025 218.82 24.0277H295.019C297.132 24.025 299.213 23.5029 301.077 22.5073C302.942 21.5117 304.533 20.0731 305.712 18.3179C306.891 16.5627 307.621 14.5447 307.837 12.4412C308.054 10.3377 307.751 8.2131 306.955 6.25421H324.322C331.516 6.25544 338.415 9.11518 343.503 14.2047C348.59 19.2943 351.45 26.197 351.452 33.3954V33.4006Z" fill="white"/>
<path d="M257.466 171.544C288.283 171.544 313.266 146.547 313.266 115.712C313.266 84.8764 288.283 59.8793 257.466 59.8793C226.649 59.8793 201.667 84.8764 201.667 115.712C201.667 146.547 226.649 171.544 257.466 171.544Z" fill="#16A34A"/>
<path d="M318.322 231.619H199.554C198.971 231.619 198.412 231.386 198 230.974C197.588 230.561 197.356 230.002 197.355 229.419V199.94C197.356 199.357 197.588 198.798 198 198.385C198.412 197.973 198.971 197.741 199.554 197.74H318.322C318.905 197.741 319.464 197.973 319.877 198.385C320.289 198.798 320.521 199.357 320.522 199.94V229.419C320.521 230.003 320.289 230.562 319.877 230.974C319.464 231.387 318.905 231.619 318.322 231.62V231.619ZM199.554 198.62C199.205 198.62 198.869 198.759 198.622 199.007C198.374 199.254 198.235 199.59 198.235 199.94V229.419C198.235 229.769 198.374 230.105 198.622 230.353C198.869 230.6 199.205 230.739 199.554 230.74H318.322C318.672 230.739 319.008 230.6 319.255 230.353C319.503 230.105 319.642 229.769 319.642 229.419V199.94C319.642 199.59 319.503 199.254 319.255 199.007C319.008 198.759 318.672 198.62 318.322 198.62H199.554Z" fill="#E6E6E6"/>
<path d="M236.284 208.356C235.876 208.356 235.484 208.518 235.196 208.807C234.907 209.096 234.745 209.488 234.745 209.896C234.745 210.305 234.907 210.697 235.196 210.986C235.484 211.275 235.876 211.437 236.284 211.437H308.864C309.272 211.453 309.67 211.305 309.97 211.028C310.269 210.75 310.446 210.365 310.462 209.956C310.478 209.548 310.33 209.15 310.053 208.85C309.775 208.55 309.39 208.373 308.982 208.357C308.96 208.357 308.937 208.356 308.914 208.356L236.284 208.356Z" fill="#E6E6E6"/>
<path d="M236.284 217.598C235.876 217.598 235.484 217.76 235.196 218.049C234.907 218.338 234.745 218.73 234.745 219.138C234.745 219.547 234.907 219.939 235.196 220.227C235.484 220.516 235.876 220.679 236.284 220.679H308.864C309.272 220.694 309.67 220.547 309.97 220.269C310.269 219.992 310.446 219.606 310.462 219.198C310.478 218.79 310.33 218.392 310.053 218.092C309.775 217.792 309.39 217.615 308.982 217.599C308.96 217.598 308.937 217.598 308.914 217.598L236.284 217.598Z" fill="#E6E6E6"/>
<path d="M318.322 280.753H199.554C198.971 280.753 198.412 280.521 198 280.108C197.588 279.696 197.356 279.136 197.355 278.553V249.075C197.356 248.491 197.588 247.932 198 247.519C198.412 247.107 198.971 246.875 199.554 246.874H318.322C318.905 246.875 319.464 247.107 319.877 247.519C320.289 247.932 320.521 248.491 320.522 249.075V278.553C320.521 279.137 320.289 279.696 319.877 280.108C319.464 280.521 318.905 280.753 318.322 280.753ZM199.554 247.754C199.205 247.754 198.869 247.894 198.622 248.141C198.374 248.389 198.235 248.724 198.235 249.075V278.553C198.235 278.904 198.374 279.239 198.622 279.487C198.869 279.734 199.205 279.874 199.554 279.874H318.322C318.672 279.874 319.008 279.734 319.255 279.487C319.503 279.239 319.642 278.904 319.642 278.553V249.075C319.642 248.724 319.503 248.389 319.255 248.141C319.008 247.894 318.672 247.754 318.322 247.754H199.554Z" fill="#E6E6E6"/>
<path d="M236.284 257.65C235.876 257.65 235.484 257.812 235.196 258.101C234.907 258.39 234.745 258.782 234.745 259.19C234.745 259.599 234.907 259.991 235.196 260.28C235.484 260.569 235.876 260.731 236.284 260.731H308.864C309.267 260.729 309.652 260.569 309.939 260.285C310.225 260.002 310.389 259.618 310.395 259.215C310.402 258.812 310.25 258.423 309.974 258.131C309.697 257.838 309.317 257.666 308.914 257.65H236.284V257.65Z" fill="#E6E6E6"/>
<path d="M236.284 266.894C235.876 266.894 235.484 267.056 235.196 267.345C234.907 267.634 234.745 268.026 234.745 268.434C234.745 268.843 234.907 269.235 235.196 269.524C235.484 269.813 235.876 269.975 236.284 269.975H308.864C309.267 269.973 309.652 269.813 309.939 269.529C310.225 269.246 310.389 268.862 310.395 268.459C310.402 268.056 310.25 267.667 309.974 267.375C309.697 267.082 309.317 266.91 308.914 266.894H236.284V266.894Z" fill="#E6E6E6"/>
<path d="M318.322 330.048H199.554C198.971 330.048 198.412 329.816 198 329.403C197.588 328.991 197.356 328.431 197.355 327.848V298.37C197.356 297.786 197.588 297.227 198 296.814C198.412 296.402 198.971 296.17 199.554 296.169H318.322C318.905 296.17 319.464 296.402 319.877 296.814C320.289 297.227 320.521 297.786 320.522 298.37V327.848C320.521 328.432 320.289 328.991 319.877 329.404C319.464 329.816 318.905 330.048 318.322 330.049V330.048ZM199.554 297.049C199.205 297.049 198.869 297.188 198.622 297.436C198.374 297.684 198.235 298.019 198.235 298.37V327.848C198.235 328.199 198.374 328.534 198.622 328.782C198.869 329.029 199.205 329.169 199.554 329.169H318.322C318.672 329.169 319.008 329.029 319.255 328.782C319.503 328.534 319.642 328.199 319.642 327.848V298.37C319.642 298.019 319.503 297.684 319.255 297.436C319.008 297.188 318.672 297.049 318.322 297.049H199.554Z" fill="#E6E6E6"/>
<path d="M236.284 306.946C235.876 306.946 235.484 307.109 235.196 307.398C234.907 307.687 234.745 308.078 234.745 308.487C234.745 308.896 234.907 309.287 235.196 309.576C235.484 309.865 235.876 310.028 236.284 310.028H308.864C309.066 310.035 309.268 310.003 309.458 309.933C309.647 309.863 309.821 309.756 309.97 309.618C310.118 309.481 310.238 309.315 310.322 309.132C310.407 308.948 310.454 308.749 310.462 308.547C310.47 308.345 310.438 308.143 310.367 307.953C310.297 307.763 310.19 307.589 310.053 307.441C309.916 307.292 309.75 307.172 309.566 307.088C309.383 307.003 309.184 306.956 308.982 306.948C308.96 306.947 308.937 306.947 308.914 306.947L236.284 306.946Z" fill="#E6E6E6"/>
<path d="M236.284 316.19C235.876 316.19 235.484 316.352 235.196 316.641C234.907 316.93 234.745 317.322 234.745 317.73C234.745 318.139 234.907 318.531 235.196 318.82C235.484 319.109 235.876 319.271 236.284 319.271H308.864C309.066 319.279 309.268 319.247 309.458 319.176C309.647 319.106 309.821 318.999 309.97 318.862C310.118 318.724 310.238 318.559 310.322 318.375C310.407 318.191 310.454 317.992 310.462 317.79C310.47 317.588 310.438 317.386 310.367 317.197C310.297 317.007 310.19 316.833 310.053 316.684C309.916 316.536 309.75 316.416 309.566 316.331C309.383 316.247 309.184 316.199 308.982 316.192C308.96 316.191 308.937 316.19 308.914 316.19H236.284L236.284 316.19Z" fill="#E6E6E6"/>
<path d="M427.88 412H1.11985C0.500983 412 0 411.729 0 411.396C0 411.062 0.50156 410.792 1.11985 410.792H427.88C428.498 410.792 429 411.062 429 411.396C429 411.729 428.499 412 427.88 412Z" fill="#E6E6E6"/>
<path d="M409.806 388.43C407.983 389.072 406.026 389.232 404.122 388.897C402.219 388.561 400.434 387.741 398.94 386.515C395.133 383.318 393.94 378.052 392.969 373.176L390.097 358.753L396.11 362.896C400.434 365.875 404.855 368.949 407.849 373.264C410.844 377.579 412.15 383.47 409.745 388.139" fill="#E6E6E6"/>
<path d="M408.878 406.896C409.635 401.379 410.413 395.791 409.882 390.216C409.411 385.263 407.901 380.427 404.827 376.461C403.195 374.36 401.21 372.56 398.96 371.142C398.373 370.771 397.833 371.702 398.417 372.07C402.31 374.532 405.321 378.168 407.016 382.452C408.888 387.217 409.189 392.411 408.865 397.472C408.67 400.533 408.257 403.574 407.84 406.61C407.807 406.748 407.828 406.892 407.897 407.015C407.967 407.138 408.081 407.229 408.216 407.272C408.353 407.309 408.499 407.29 408.623 407.22C408.747 407.149 408.838 407.033 408.877 406.896H408.878Z" fill="#F2F2F2"/>
<path d="M403.43 398.044C402.648 399.233 401.574 400.2 400.309 400.853C399.045 401.506 397.634 401.822 396.213 401.771C392.559 401.598 389.513 399.046 386.771 396.625L378.661 389.459L384.028 389.202C387.888 389.017 391.848 388.845 395.527 390.036C399.206 391.227 402.595 394.094 403.267 397.899" fill="#E6E6E6"/>
<path d="M411.016 410.067C407.376 403.617 403.147 396.448 395.597 394.156C393.497 393.522 391.296 393.294 389.111 393.486C388.422 393.544 388.594 394.608 389.284 394.549C392.947 394.244 396.602 395.212 399.635 397.289C402.553 399.276 404.825 402.039 406.748 404.97C407.927 406.763 408.982 408.637 410.037 410.505C410.372 411.102 411.358 410.671 411.016 410.067Z" fill="#F2F2F2"/>
<path d="M214.371 223.741C219.473 223.741 223.609 219.603 223.609 214.498C223.609 209.394 219.473 205.256 214.371 205.256C209.27 205.256 205.134 209.394 205.134 214.498C205.134 219.603 209.27 223.741 214.371 223.741Z" fill="#16A34A"/>
<path d="M209.949 212.772C209.843 212.772 209.757 213.462 209.757 214.312C209.757 215.163 209.843 215.853 209.949 215.853H219.032C219.139 215.867 219.227 215.189 219.228 214.338C219.287 213.809 219.222 213.273 219.039 212.773H209.949V212.772Z" fill="#E6E6E6"/>
<path d="M214.371 273.057C219.473 273.057 223.609 268.918 223.609 263.814C223.609 258.709 219.473 254.571 214.371 254.571C209.27 254.571 205.134 258.709 205.134 263.814C205.134 268.918 209.27 273.057 214.371 273.057Z" fill="#16A34A"/>
<path d="M209.949 262.087C209.843 262.087 209.757 262.777 209.757 263.628C209.757 264.478 209.843 265.168 209.949 265.168H219.032C219.139 265.182 219.227 264.504 219.228 263.654C219.287 263.124 219.222 262.588 219.039 262.088L209.949 262.087Z" fill="#E6E6E6"/>
<path d="M214.371 322.352C219.473 322.352 223.609 318.213 223.609 313.109C223.609 308.004 219.473 303.866 214.371 303.866C209.27 303.866 205.134 308.004 205.134 313.109C205.134 318.213 209.27 322.352 214.371 322.352Z" fill="#16A34A"/>
<path d="M209.949 311.382C209.843 311.382 209.757 312.072 209.757 312.923C209.757 313.773 209.843 314.463 209.949 314.463H219.032C219.139 314.477 219.227 313.799 219.228 312.949C219.287 312.419 219.222 311.883 219.039 311.383L209.949 311.382Z" fill="#E6E6E6"/>
<path d="M245.413 100.38L242.144 103.651L269.52 131.043L272.789 127.773L245.413 100.38Z" fill="white"/>
<path d="M272.789 103.651L269.52 100.38L242.144 127.773L245.413 131.043L272.789 103.651Z" fill="white"/>
<path d="M52.1556 263.731C52.9564 263.447 53.6853 262.992 54.291 262.396C54.8967 261.8 55.3645 261.078 55.6613 260.282C55.9581 259.485 56.0768 258.633 56.009 257.786C55.9412 256.939 55.6886 256.117 55.2689 255.378L68.8859 239.845L58.2562 238.378L46.9549 253.353C45.7609 254.14 44.8971 255.339 44.5273 256.721C44.1575 258.104 44.3073 259.574 44.9484 260.853C45.5894 262.132 46.6772 263.132 48.0055 263.662C49.3339 264.193 50.8105 264.217 52.1556 263.731Z" fill="#9F616A"/>
<path d="M68.5777 401.386L59.0809 401.385L54.5627 364.732L68.5795 364.732L68.5777 401.386Z" fill="#9F616A"/>
<path d="M70.9998 410.597L40.3772 410.596V410.208C40.3774 407.045 41.6332 404.012 43.8685 401.776C46.1037 399.539 49.1353 398.283 52.2963 398.282H52.2971L71.0004 398.283L70.9998 410.597Z" fill="#2F2E41"/>
<path d="M118.292 393.433L109.222 396.251L94.0444 362.587L107.431 358.428L118.292 393.433Z" fill="#9F616A"/>
<path d="M123.335 401.512L94.0895 410.597L93.9747 410.227C93.0375 407.206 93.3378 403.937 94.8097 401.138C96.2815 398.338 98.8043 396.239 101.823 395.301L101.824 395.301L119.686 389.752L123.335 401.512Z" fill="#2F2E41"/>
<path d="M61.3051 232.398L47.2397 248.516L58.2512 249.508L61.3051 232.398Z" fill="#E6E6E6"/>
<path d="M55.8091 253.174C55.8091 253.174 50.9234 255.618 50.3126 266.617C49.7018 277.617 52.145 306.339 52.145 306.339C52.145 306.339 49.7024 319.171 52.145 330.781C54.5875 342.391 49.7024 384.552 52.7557 384.552C55.8091 384.552 71.687 386.386 72.2978 384.552C72.9086 382.719 73.5193 355.222 73.5193 355.222C73.5193 355.222 78.405 341.167 73.5193 332.614C73.5193 332.614 90.5778 362.419 101.611 385.165C104.026 390.143 122.375 384.554 119.321 379.054C116.268 373.555 108.94 348.501 108.94 348.501C108.94 348.501 103.443 330.169 93.6728 322.226L98.5584 283.118C98.5584 283.118 108.94 256.842 102.834 253.176C96.7284 249.509 55.8091 253.174 55.8091 253.174Z" fill="#2F2E41"/>
<path d="M74.1297 153.57C82.8988 153.57 90.0076 146.457 90.0076 137.683C90.0076 128.909 82.8988 121.796 74.1297 121.796C65.3605 121.796 58.2517 128.909 58.2517 137.683C58.2517 146.457 65.3605 153.57 74.1297 153.57Z" fill="#A0616A"/>
<path d="M91.8399 154.793L72.1008 166.403C72.1008 166.403 64.5426 170.662 61.7193 178.013C58.7099 185.847 60.459 196.878 61.7193 199.4C64.1618 204.288 60.6948 216.509 60.6948 216.509L57.6415 244.618C57.6415 244.618 46.6492 255.006 55.1989 256.228C63.7487 257.45 79.0158 255.617 88.1764 256.228C97.3369 256.839 107.718 258.061 104.665 251.949C101.612 245.837 97.9477 241.561 101.612 229.342C104.479 219.779 104.355 184.022 104.165 168.922C104.139 166.848 103.583 164.816 102.551 163.017C101.518 161.219 100.042 159.716 98.2649 158.649L91.8399 154.793Z" fill="#E5E5E5"/>
<path opacity="0.1" d="M82.9874 174.042L84.8192 211.316L67.0644 247.293L64.0532 246.146L82.3743 212.538L82.9874 174.042Z" fill="black"/>
<path opacity="0.1" d="M103.138 219.259V214.981L82.3767 249.201L103.138 219.259Z" fill="black"/>
<path d="M62.8606 122.965L60.2377 121.915C60.2377 121.915 65.7272 115.869 73.3623 116.395L71.2144 114.029C71.2144 114.029 76.4641 111.926 81.2371 117.446C83.7461 120.348 86.6486 123.759 88.4601 127.601H91.2713L90.0983 130.186L94.2045 132.771L89.9897 132.309C90.3889 134.54 90.2523 136.835 89.591 139.003L89.7066 141.047C89.7066 141.047 84.8186 133.479 84.8186 132.429V135.058C84.8186 135.058 82.1934 132.692 82.1934 131.115L80.7615 132.955L80.0456 130.064L71.2162 132.955L72.6469 130.588L67.1574 131.377L69.3053 128.486C69.3053 128.486 63.1009 131.903 62.8623 134.795C62.6236 137.687 59.5218 141.367 59.5218 141.367L58.0899 138.738C58.0899 138.738 55.9426 126.908 62.8606 122.965Z" fill="#2F2E41"/>
<path d="M73.1333 265.46C73.8711 265.039 74.5076 264.461 74.9979 263.767C75.4883 263.072 75.8206 262.279 75.9714 261.443C76.1222 260.606 76.0879 259.747 75.8709 258.925C75.6539 258.103 75.2594 257.339 74.7153 256.686L85.3607 238.982L74.6395 239.426L66.1742 256.17C65.1388 257.158 64.5014 258.491 64.3827 259.917C64.264 261.343 64.6722 262.763 65.53 263.908C66.3878 265.053 67.6356 265.844 69.037 266.13C70.4383 266.416 71.8958 266.177 73.1333 265.46Z" fill="#9F616A"/>
<path d="M97.337 162.737L101.917 161.821C101.917 161.821 115.658 171.903 111.383 192.068C107.108 212.233 88.1765 242.786 88.1765 242.786C88.1765 242.786 83.9005 248.286 82.68 249.508C81.4596 250.729 79.016 249.508 80.2375 251.341C81.4591 253.175 78.4052 254.396 78.4052 254.396C78.4052 254.396 64.9698 254.396 66.1913 249.508C67.4129 244.619 88.1765 209.786 88.1765 209.786L85.1232 177.4C85.1232 177.4 82.6795 161.515 97.337 162.737Z" fill="#E5E5E5"/>
</g>
<defs>
<clipPath id="clip0_101_1081">
<rect width="429" height="412" fill="white"/>
</clipPath>
</defs>
</svg>
