<svg width="703" height="526" viewBox="0 0 703 526" fill="none" xmlns="http://www.w3.org/2000/svg">
<g clip-path="url(#clip0_130_1229)">
<path d="M703 524.482C703 525.324 702.323 526 701.481 526H1.51938C0.676698 526 0 525.324 0 524.482C0 523.641 0.676698 522.965 1.51938 522.965H701.481C702.323 522.965 703 523.641 703 524.482Z" fill="#2E2E43"/>
<path d="M557.521 108.127H145.651C139.958 108.127 135.327 103.501 135.327 97.8153V66.1201C135.327 60.434 139.958 55.808 145.651 55.808H557.521C563.214 55.808 567.845 60.434 567.845 66.1201V97.8153C567.845 103.501 563.214 108.127 557.521 108.127Z" fill="white" stroke="#BAB7C9" stroke-width="2" stroke-linecap="round" stroke-linejoin="round"/>
<path d="M557.521 303.514H145.651C139.958 303.514 135.327 298.888 135.327 293.202V261.507C135.327 255.821 139.958 251.195 145.651 251.195H557.521C563.214 251.195 567.845 255.821 567.845 261.507V293.202C567.845 298.888 563.214 303.514 557.521 303.514Z" fill="white" stroke="#BAB7C9" stroke-width="2" stroke-linecap="round" stroke-linejoin="round"/>
<path d="M265.137 443.799H144.374C138.681 443.799 134.05 439.173 134.05 433.487V401.792C134.05 396.106 138.681 391.48 144.374 391.48H265.137C270.829 391.48 275.46 396.106 275.46 401.792V433.487C275.46 439.173 270.829 443.799 265.137 443.799Z" fill="#16A34A"/>
<path d="M136.231 1.27533H226.564" stroke="#BAB7C9" stroke-width="2" stroke-linecap="round" stroke-linejoin="round"/>
<path d="M136.231 196.662H304.033" stroke="#BAB7C9" stroke-width="2" stroke-linecap="round" stroke-linejoin="round"/>
<path d="M507.692 468.35L493.487 477.421L506.368 497.547L520.572 488.476L507.692 468.35Z" fill="#F1A1A4"/>
<path d="M462.642 197.805L444.698 203.925L444.416 178.045L460.745 177.863L462.642 197.805Z" fill="#F1A1A4"/>
<path d="M446.511 185.191C456.421 185.191 464.455 177.167 464.455 167.268C464.455 157.369 456.421 149.344 446.511 149.344C436.601 149.344 428.567 157.369 428.567 167.268C428.567 177.167 436.601 185.191 446.511 185.191Z" fill="#F1A1A4"/>
<path d="M451.422 165.44C448.424 165.382 446.412 162.38 445.211 159.617C444.011 156.871 442.777 153.695 439.986 152.578C437.701 151.669 433.759 158.021 431.937 156.367C430.041 154.638 431.772 145.606 433.751 143.977C435.73 142.347 438.446 142 440.996 141.843C447.248 141.487 453.533 141.917 459.677 143.133C463.47 143.877 467.395 145.027 470.152 147.732C473.655 151.164 474.599 156.391 474.897 161.28C475.212 166.284 474.972 171.528 472.587 175.944C470.194 180.353 465.134 183.636 460.224 182.578C459.702 179.923 460.166 177.201 460.332 174.489C460.497 171.792 460.257 168.881 458.584 166.747C456.912 164.613 453.384 163.802 451.488 165.73" fill="#2F2E43"/>
<path d="M473.564 171.403C475.344 170.072 477.472 168.947 479.683 169.195C482.076 169.451 484.113 171.403 484.751 173.719C485.388 176.035 484.726 178.599 483.277 180.518C481.828 182.437 479.65 183.711 477.331 184.364C475.99 184.745 474.524 184.902 473.232 184.364C471.336 183.57 470.293 181.18 471.013 179.253" fill="#2F2E43"/>
<path d="M406.789 340.729C405.663 346.626 407.907 351.986 411.815 352.689C415.715 353.392 419.798 349.174 420.932 343.277C421.421 340.928 421.313 338.496 420.617 336.188L434.421 243.751L415.823 240.475L409.704 334.236C408.205 336.155 407.203 338.38 406.789 340.754L406.789 340.729Z" fill="#F1A1A4"/>
<path d="M444.366 192.048L431.697 192.189C422.754 193.636 420.377 198.442 418.448 207.275C415.492 220.749 411.716 238.705 412.511 238.953C413.778 239.367 435.448 249.259 446.42 246.811L444.375 192.048L444.366 192.048Z" fill="#16A34A"/>
<path d="M459.927 485.847L443.068 486.036L443.335 509.921L460.194 509.733L459.927 485.847Z" fill="#F1A1A4"/>
<path d="M427.035 524.57C425.255 524.595 423.69 524.57 422.497 524.471C418.009 524.116 413.711 520.857 411.534 518.954C410.557 518.103 410.234 516.713 410.722 515.522C411.07 514.67 411.782 514.017 412.676 513.744L424.476 510.237L443.497 497.11L443.712 497.491C443.795 497.632 445.716 500.998 446.37 503.281C446.619 504.149 446.569 504.869 446.205 505.431C445.956 505.82 445.608 506.052 445.327 506.192C445.675 506.548 446.768 507.276 450.13 507.772C455.015 508.5 456 503.421 456.034 503.206L456.067 503.032L456.208 502.933C458.518 501.403 459.934 500.717 460.431 500.857C460.745 500.94 461.25 501.097 462.791 514.86C462.931 515.29 463.942 518.45 463.312 521.494C462.633 524.802 448.184 523.818 445.302 523.594C445.219 523.603 434.421 524.496 427.018 524.57H427.043L427.035 524.57Z" fill="#2F2E43"/>
<path d="M489.281 520.6C487.301 520.625 485.48 520.402 484.18 520.187C482.904 519.972 481.894 518.971 481.679 517.697C481.513 516.779 481.787 515.861 482.391 515.166L490.539 505.952L499.714 484.762L500.103 484.969C500.244 485.043 503.656 486.887 505.428 488.475C506.098 489.079 506.438 489.716 506.438 490.394C506.438 490.858 506.264 491.238 506.09 491.494C506.579 491.61 507.887 491.643 511.001 490.295C515.53 488.327 513.675 483.496 513.592 483.306L513.526 483.141L513.601 482.992C514.752 480.477 515.596 479.137 516.085 478.988C516.399 478.906 516.905 478.749 525.508 489.617C525.856 489.906 528.39 492.049 529.466 494.96C530.634 498.128 517.873 504.927 515.29 506.258C515.215 506.324 501.875 516.225 496.394 519.062C494.216 520.187 491.624 520.559 489.264 520.576L489.289 520.6L489.281 520.6Z" fill="#2F2E43"/>
<path d="M470.086 285.908L422.887 286.429L419.094 330.332L439.638 492.181L463.735 491.908L453.061 398.42L493.09 482.496L514.338 467.277L482.938 388.718C482.938 388.718 493.081 319.869 484.321 302.848C475.568 285.826 470.094 285.884 470.094 285.884V285.908L470.086 285.908Z" fill="#2F2E43"/>
<path d="M493.586 288.324L418.622 289.159L440.036 192.106L472.703 191.734L493.586 288.324Z" fill="#16A34A"/>
<path d="M500.906 339.687C502.165 345.568 500.037 350.969 496.153 351.754C492.261 352.548 488.088 348.421 486.838 342.54C486.299 340.2 486.349 337.768 486.987 335.444L471.121 243.329L489.637 239.64L497.843 333.252C499.383 335.138 500.434 337.346 500.906 339.703V339.687Z" fill="#F1A1A4"/>
<path d="M460.041 191.874L472.711 191.734C481.679 192.991 484.163 197.739 486.299 206.531C489.554 219.938 493.719 237.795 492.94 238.068C491.673 238.498 470.243 248.87 459.222 246.67L460.058 191.874L460.041 191.874Z" fill="#16A34A"/>
</g>
<defs>
<clipPath id="clip0_130_1229">
<rect width="703" height="526" fill="white"/>
</clipPath>
</defs>
</svg>
