<svg width="550" height="528" viewBox="0 0 550 528" fill="none" xmlns="http://www.w3.org/2000/svg">
<g clip-path="url(#clip0_130_1250)">
<path d="M462.877 125.145H459.988V45.8776C459.988 33.7101 455.156 22.0409 446.554 13.4372C437.952 4.83352 426.285 5.98449e-09 414.12 5.98449e-09H246.213C240.189 -9.73013e-05 234.225 1.18646 228.66 3.49194C223.095 5.79741 218.038 9.17665 213.779 13.4367C209.519 17.6968 206.141 22.7542 203.836 28.3203C201.53 33.8864 200.344 39.8521 200.344 45.8768V480.744C200.344 492.912 205.176 504.581 213.778 513.185C222.38 521.788 234.047 526.622 246.212 526.622H414.118C426.283 526.622 437.95 521.788 446.552 513.185C455.154 504.581 459.986 492.912 459.986 480.744V181.569H462.875L462.877 125.145Z" fill="#3F3D56"/>
<path d="M450.58 42.8047V483.816C450.578 493.041 446.914 501.888 440.393 508.412C433.872 514.936 425.027 518.603 415.804 518.606H244.452C235.225 518.607 226.375 514.943 219.849 508.418C213.323 501.894 209.656 493.044 209.653 483.816V42.8047C209.656 33.5762 213.323 24.7267 219.849 18.2026C226.374 11.6784 235.223 8.01396 244.45 8.01514H265.236C264.215 10.5256 263.827 13.2483 264.105 15.9441C264.383 18.6398 265.318 21.226 266.829 23.4754C268.341 25.7248 270.381 27.5685 272.771 28.8444C275.162 30.1203 277.829 30.7893 280.539 30.7928H378.229C380.939 30.7893 383.606 30.1203 385.996 28.8444C388.387 27.5685 390.427 25.7248 391.939 23.4754C393.45 21.226 394.385 18.6398 394.663 15.9441C394.941 13.2483 394.553 10.5256 393.532 8.01514H415.797C425.021 8.01671 433.866 11.6816 440.388 18.2042C446.911 24.7267 450.576 33.5729 450.58 42.7981V42.8047Z" fill="white"/>
<path d="M330.085 219.843C369.594 219.843 401.623 187.808 401.623 148.291C401.623 108.774 369.594 76.7385 330.085 76.7385C290.576 76.7385 258.547 108.774 258.547 148.291C258.547 187.808 290.576 219.843 330.085 219.843Z" fill="#16A34A"/>
<path d="M408.106 296.832H255.839C255.092 296.832 254.375 296.534 253.846 296.005C253.318 295.477 253.02 294.76 253.02 294.012V256.234C253.021 255.487 253.318 254.77 253.846 254.241C254.375 253.712 255.092 253.415 255.839 253.414H408.106C408.853 253.415 409.57 253.712 410.098 254.241C410.627 254.77 410.924 255.487 410.925 256.234V294.013C410.924 294.761 410.627 295.477 410.098 296.006C409.57 296.535 408.853 296.832 408.106 296.833V296.832ZM255.839 254.542C255.39 254.542 254.96 254.721 254.643 255.038C254.326 255.355 254.147 255.785 254.147 256.234V294.013C254.147 294.462 254.326 294.892 254.643 295.209C254.96 295.526 255.39 295.705 255.839 295.705H408.106C408.554 295.705 408.985 295.526 409.302 295.209C409.619 294.892 409.797 294.462 409.798 294.013V256.234C409.797 255.785 409.619 255.355 409.302 255.038C408.985 254.721 408.554 254.542 408.106 254.542H255.839Z" fill="#E6E6E6"/>
<path d="M302.929 267.019C302.405 267.019 301.903 267.227 301.533 267.597C301.163 267.968 300.955 268.47 300.955 268.993C300.955 269.517 301.163 270.019 301.533 270.389C301.903 270.76 302.405 270.968 302.929 270.968H395.98C396.503 270.988 397.013 270.799 397.397 270.443C397.781 270.087 398.008 269.593 398.028 269.07C398.048 268.547 397.859 268.037 397.504 267.653C397.148 267.268 396.654 267.041 396.131 267.021C396.102 267.02 396.073 267.02 396.044 267.02L302.929 267.019Z" fill="#E6E6E6"/>
<path d="M302.929 278.863C302.405 278.863 301.903 279.071 301.533 279.441C301.163 279.811 300.955 280.313 300.955 280.837C300.955 281.361 301.163 281.863 301.533 282.233C301.903 282.603 302.405 282.811 302.929 282.811H395.98C396.503 282.831 397.013 282.643 397.397 282.287C397.781 281.931 398.008 281.437 398.028 280.914C398.048 280.39 397.859 279.881 397.504 279.496C397.148 279.112 396.654 278.885 396.131 278.865C396.102 278.864 396.073 278.863 396.044 278.864L302.929 278.863Z" fill="#E6E6E6"/>
<path d="M408.106 359.8H255.839C255.092 359.8 254.375 359.502 253.846 358.974C253.318 358.445 253.02 357.728 253.02 356.98V319.202C253.021 318.455 253.318 317.738 253.846 317.209C254.375 316.681 255.092 316.383 255.839 316.382H408.106C408.853 316.383 409.57 316.681 410.098 317.209C410.627 317.738 410.924 318.455 410.925 319.202V356.981C410.924 357.729 410.627 358.445 410.098 358.974C409.57 359.502 408.853 359.799 408.106 359.8ZM255.839 317.51C255.39 317.51 254.96 317.689 254.643 318.006C254.326 318.323 254.147 318.754 254.147 319.202V356.981C254.147 357.43 254.326 357.86 254.643 358.177C254.96 358.495 255.39 358.673 255.839 358.673H408.106C408.554 358.673 408.985 358.495 409.302 358.177C409.619 357.86 409.797 357.43 409.798 356.981V319.202C409.797 318.754 409.619 318.323 409.302 318.006C408.985 317.689 408.554 317.51 408.106 317.51H255.839Z" fill="#E6E6E6"/>
<path d="M302.929 330.192C302.405 330.192 301.903 330.4 301.533 330.77C301.163 331.14 300.955 331.643 300.955 332.166C300.955 332.69 301.163 333.192 301.533 333.562C301.903 333.932 302.405 334.14 302.929 334.14H395.98C396.496 334.138 396.99 333.933 397.357 333.57C397.724 333.206 397.934 332.714 397.942 332.198C397.951 331.682 397.757 331.183 397.402 330.808C397.047 330.433 396.56 330.212 396.044 330.193H302.929V330.192Z" fill="#E6E6E6"/>
<path d="M302.929 342.039C302.405 342.039 301.903 342.247 301.533 342.617C301.163 342.987 300.955 343.489 300.955 344.013C300.955 344.537 301.163 345.039 301.533 345.409C301.903 345.779 302.405 345.987 302.929 345.987H395.98C396.496 345.984 396.99 345.779 397.357 345.416C397.724 345.053 397.934 344.561 397.942 344.045C397.951 343.529 397.757 343.03 397.402 342.655C397.047 342.28 396.56 342.059 396.044 342.039H302.929V342.039Z" fill="#E6E6E6"/>
<path d="M408.106 422.975H255.839C255.092 422.974 254.375 422.677 253.846 422.148C253.318 421.619 253.02 420.902 253.02 420.154V382.377C253.021 381.629 253.318 380.912 253.846 380.383C254.375 379.855 255.092 379.557 255.839 379.556H408.106C408.853 379.557 409.57 379.855 410.098 380.383C410.627 380.912 410.924 381.629 410.925 382.377V420.155C410.924 420.903 410.627 421.62 410.098 422.148C409.57 422.677 408.853 422.974 408.106 422.975V422.975ZM255.839 380.684C255.39 380.685 254.96 380.863 254.643 381.18C254.326 381.498 254.147 381.928 254.147 382.377V420.155C254.147 420.604 254.326 421.034 254.643 421.352C254.96 421.669 255.39 421.847 255.839 421.848H408.106C408.554 421.847 408.985 421.669 409.302 421.352C409.619 421.034 409.797 420.604 409.798 420.155V382.377C409.797 381.928 409.619 381.498 409.302 381.18C408.985 380.863 408.554 380.685 408.106 380.684H255.839Z" fill="#E6E6E6"/>
<path d="M302.929 393.368C302.405 393.368 301.903 393.576 301.533 393.946C301.163 394.317 300.955 394.819 300.955 395.342C300.955 395.866 301.163 396.368 301.533 396.739C301.903 397.109 302.405 397.317 302.929 397.317H395.98C396.239 397.327 396.497 397.286 396.74 397.196C396.983 397.106 397.207 396.969 397.397 396.792C397.587 396.616 397.741 396.404 397.849 396.169C397.957 395.933 398.018 395.678 398.028 395.419C398.038 395.16 397.997 394.901 397.907 394.658C397.817 394.415 397.68 394.192 397.504 394.002C397.328 393.811 397.116 393.658 396.88 393.549C396.644 393.441 396.39 393.38 396.131 393.37C396.102 393.369 396.073 393.369 396.044 393.369L302.929 393.368Z" fill="#E6E6E6"/>
<path d="M302.929 405.214C302.405 405.214 301.903 405.422 301.533 405.792C301.163 406.163 300.955 406.665 300.955 407.188C300.955 407.712 301.163 408.214 301.533 408.585C301.903 408.955 302.405 409.163 302.929 409.163H395.98C396.239 409.173 396.497 409.132 396.74 409.042C396.983 408.952 397.207 408.815 397.397 408.638C397.587 408.462 397.741 408.25 397.849 408.015C397.957 407.779 398.018 407.524 398.028 407.265C398.038 407.006 397.997 406.747 397.907 406.504C397.817 406.261 397.68 406.038 397.504 405.848C397.328 405.657 397.116 405.504 396.88 405.395C396.644 405.287 396.39 405.226 396.131 405.216C396.102 405.215 396.073 405.215 396.044 405.215H302.928L302.929 405.214Z" fill="#E6E6E6"/>
<path d="M548.564 528H1.43571C0.642285 528 0 527.653 0 527.226C0 526.798 0.643026 526.451 1.43571 526.451H548.564C549.357 526.451 550 526.798 550 527.226C550 527.653 549.358 528 548.564 528Z" fill="#E6E6E6"/>
<path d="M525.393 497.794C523.056 498.616 520.546 498.822 518.106 498.392C515.665 497.962 513.377 496.911 511.461 495.339C506.581 491.243 505.051 484.494 503.807 478.245L500.125 459.761L507.833 465.07C513.377 468.888 519.045 472.828 522.884 478.358C526.723 483.888 528.398 491.437 525.314 497.421" fill="#E6E6E6"/>
<path d="M524.202 521.459C525.173 514.388 526.17 507.227 525.49 500.082C524.885 493.736 522.949 487.537 519.008 482.455C516.916 479.763 514.371 477.456 511.487 475.638C510.735 475.163 510.042 476.355 510.791 476.828C515.782 479.983 519.642 484.642 521.815 490.133C524.215 496.24 524.601 502.896 524.186 509.382C523.935 513.304 523.406 517.201 522.872 521.093C522.83 521.269 522.856 521.454 522.945 521.611C523.035 521.769 523.18 521.886 523.353 521.94C523.529 521.988 523.717 521.964 523.876 521.874C524.034 521.783 524.151 521.634 524.201 521.459H524.202Z" fill="#F2F2F2"/>
<path d="M517.219 510.114C516.216 511.638 514.838 512.878 513.217 513.715C511.597 514.552 509.788 514.957 507.965 514.891C503.281 514.669 499.375 511.399 495.86 508.297L485.462 499.112L492.344 498.783C497.293 498.546 502.369 498.325 507.086 499.852C511.803 501.378 516.147 505.052 517.009 509.929" fill="#E6E6E6"/>
<path d="M526.944 525.523C522.277 517.256 516.856 508.069 507.175 505.133C504.484 504.319 501.661 504.027 498.86 504.274C497.977 504.348 498.198 505.711 499.083 505.635C503.778 505.245 508.464 506.485 512.352 509.146C516.094 511.694 519.007 515.235 521.473 518.991C522.983 521.288 524.336 523.69 525.689 526.084C526.118 526.849 527.382 526.297 526.944 525.523Z" fill="#F2F2F2"/>
<path d="M274.835 286.737C281.376 286.737 286.678 281.433 286.678 274.891C286.678 268.349 281.376 263.046 274.835 263.046C268.294 263.046 262.992 268.349 262.992 274.891C262.992 281.433 268.294 286.737 274.835 286.737Z" fill="#16A34A"/>
<path d="M269.166 272.679C269.029 272.679 268.919 273.563 268.919 274.653C268.919 275.743 269.029 276.627 269.166 276.627H280.811C280.947 276.645 281.06 275.776 281.062 274.686C281.137 274.007 281.054 273.32 280.819 272.679H269.166V272.679Z" fill="#E6E6E6"/>
<path d="M274.835 349.937C281.376 349.937 286.678 344.633 286.678 338.091C286.678 331.549 281.376 326.246 274.835 326.246C268.294 326.246 262.992 331.549 262.992 338.091C262.992 344.633 268.294 349.937 274.835 349.937Z" fill="#16A34A"/>
<path d="M269.166 335.879C269.029 335.879 268.919 336.763 268.919 337.853C268.919 338.943 269.029 339.827 269.166 339.827H280.811C280.947 339.845 281.06 338.976 281.062 337.886C281.137 337.207 281.054 336.52 280.819 335.88L269.166 335.879Z" fill="#E6E6E6"/>
<path d="M274.835 413.111C281.376 413.111 286.678 407.808 286.678 401.266C286.678 394.724 281.376 389.42 274.835 389.42C268.294 389.42 262.992 394.724 262.992 401.266C262.992 407.808 268.294 413.111 274.835 413.111Z" fill="#16A34A"/>
<path d="M269.166 399.053C269.029 399.053 268.919 399.937 268.919 401.027C268.919 402.117 269.029 403.002 269.166 403.002H280.811C280.947 403.019 281.06 402.15 281.062 401.06C281.137 400.382 281.054 399.695 280.819 399.054L269.166 399.053Z" fill="#E6E6E6"/>
<path d="M314.632 128.643L310.441 132.834L345.538 167.939L349.729 163.747L314.632 128.643Z" fill="white"/>
<path d="M349.729 132.834L345.538 128.643L310.441 163.747L314.631 167.939L349.729 132.834Z" fill="white"/>
<path d="M66.8662 337.985C67.8929 337.622 68.8274 337.038 69.6039 336.274C70.3804 335.51 70.9801 334.585 71.3606 333.565C71.7411 332.544 71.8933 331.452 71.8064 330.367C71.7195 329.281 71.3956 328.227 70.8576 327.28L88.3152 307.375L74.6874 305.494L60.1986 324.685C58.6678 325.695 57.5604 327.231 57.0863 329.002C56.6122 330.774 56.8042 332.658 57.6261 334.297C58.4479 335.937 59.8425 337.218 61.5455 337.897C63.2485 338.577 65.1417 338.608 66.8662 337.985Z" fill="#9F616A"/>
<path d="M87.9201 514.397L75.7446 514.396L69.9521 467.423L87.9223 467.424L87.9201 514.397Z" fill="#9F616A"/>
<path d="M91.0254 526.202L51.7656 526.201V525.704C51.7659 521.651 53.3759 517.763 56.2416 514.897C59.1073 512.031 62.9939 510.42 67.0466 510.42H67.0476L91.0261 510.421L91.0254 526.202Z" fill="#2F2E41"/>
<path d="M151.656 504.206L140.028 507.817L120.57 464.674L137.732 459.345L151.656 504.206Z" fill="#9F616A"/>
<path d="M158.122 514.559L120.628 526.202L120.481 525.728C119.279 521.857 119.664 517.666 121.551 514.079C123.438 510.492 126.672 507.801 130.543 506.599L130.544 506.599L153.444 499.487L158.122 514.559Z" fill="#2F2E41"/>
<path d="M78.596 297.83L60.5635 318.487L74.6807 319.757L78.596 297.83Z" fill="#E6E6E6"/>
<path d="M71.5503 324.456C71.5503 324.456 65.2867 327.588 64.5036 341.684C63.7206 355.781 66.8527 392.589 66.8527 392.589C66.8527 392.589 63.7213 409.035 66.8527 423.913C69.9842 438.792 63.7213 492.824 67.6358 492.824C71.5503 492.824 91.9067 495.174 92.6897 492.824C93.4728 490.475 94.2558 455.235 94.2558 455.235C94.2558 455.235 100.519 437.224 94.2558 426.263C94.2558 426.263 116.126 464.459 130.271 493.61C133.367 499.99 156.891 492.827 152.976 485.778C149.062 478.73 139.667 446.623 139.667 446.623C139.667 446.623 132.62 423.129 120.094 412.949L126.357 362.83C126.357 362.83 139.668 329.157 131.839 324.458C124.011 319.76 71.5503 324.456 71.5503 324.456Z" fill="#2F2E41"/>
<path d="M95.038 196.809C106.28 196.809 115.394 187.693 115.394 176.448C115.394 165.203 106.28 156.088 95.038 156.088C83.7955 156.088 74.6816 165.203 74.6816 176.448C74.6816 187.693 83.7955 196.809 95.038 196.809Z" fill="#A0616A"/>
<path d="M117.743 198.375L92.4369 213.254C92.4369 213.254 82.747 218.712 79.1273 228.133C75.2691 238.173 77.5116 252.309 79.1273 255.541C82.2588 261.806 77.8138 277.468 77.8138 277.468L73.8993 313.491C73.8993 313.491 59.8066 326.803 70.7678 328.37C81.7291 329.936 101.302 327.587 113.047 328.37C124.791 329.153 138.101 330.719 134.186 322.887C130.272 315.054 125.574 309.573 130.272 293.914C133.948 281.659 133.788 235.834 133.545 216.482C133.512 213.825 132.799 211.22 131.475 208.916C130.151 206.611 128.26 204.684 125.981 203.317L117.743 198.375Z" fill="#E5E5E5"/>
<path opacity="0.1" d="M106.394 223.044L108.743 270.813L85.9801 316.919L82.1196 315.449L105.608 272.379L106.394 223.044Z" fill="black"/>
<path opacity="0.1" d="M132.228 280.993V275.509L105.611 319.365L132.228 280.993Z" fill="black"/>
<path d="M80.5904 157.586L77.2278 156.241C77.2278 156.241 84.2656 148.492 94.0541 149.166L91.3005 146.134C91.3005 146.134 98.0309 143.439 104.15 150.513C107.367 154.232 111.088 158.604 113.41 163.528H117.014L115.511 166.841L120.775 170.153L115.371 169.561C115.883 172.421 115.708 175.361 114.86 178.14L115.008 180.759C115.008 180.759 108.742 171.06 108.742 169.715V173.084C108.742 173.084 105.376 170.052 105.376 168.031L103.54 170.389L102.622 166.684L91.3027 170.389L93.137 167.356L86.0992 168.366L88.8528 164.661C88.8528 164.661 80.8986 169.041 80.5926 172.747C80.2867 176.453 76.3099 181.169 76.3099 181.169L74.4742 177.8C74.4742 177.8 71.7212 162.64 80.5904 157.586Z" fill="#2F2E41"/>
<path d="M93.7607 340.201C94.7065 339.661 95.5225 338.92 96.1512 338.031C96.7798 337.141 97.2059 336.125 97.3992 335.053C97.5926 333.981 97.5486 332.88 97.2704 331.826C96.9922 330.773 96.4865 329.794 95.7889 328.957L109.437 306.269L95.6917 306.838L84.8387 328.296C83.5114 329.561 82.6942 331.27 82.542 333.097C82.3898 334.925 82.9131 336.745 84.0129 338.212C85.1126 339.68 86.7124 340.693 88.5089 341.059C90.3055 341.426 92.1741 341.121 93.7607 340.201Z" fill="#9F616A"/>
<path d="M124.791 208.557L130.663 207.382C130.663 207.382 148.279 220.303 142.798 246.146C137.317 271.988 113.047 311.144 113.047 311.144C113.047 311.144 107.564 318.192 106 319.757C104.435 321.323 101.302 319.757 102.868 322.107C104.434 324.457 100.519 326.022 100.519 326.022C100.519 326.022 83.2943 326.022 84.8604 319.757C86.4265 313.492 113.047 268.852 113.047 268.852L109.132 227.348C109.132 227.348 105.999 206.99 124.791 208.557Z" fill="#E5E5E5"/>
</g>
<defs>
<clipPath id="clip0_130_1250">
<rect width="550" height="528" fill="white"/>
</clipPath>
</defs>
</svg>
