<svg width="400" height="412" viewBox="0 0 400 412" fill="none" xmlns="http://www.w3.org/2000/svg">
<g clip-path="url(#clip0_101_1125)">
<path d="M280.803 412H171.325C170.053 411.999 168.833 411.493 167.933 410.595C167.033 409.696 166.527 408.477 166.525 407.207V330.767C166.527 329.496 167.033 328.278 167.933 327.379C168.833 326.48 170.053 325.975 171.325 325.974H280.803C282.075 325.975 283.295 326.48 284.195 327.379C285.095 328.278 285.601 329.496 285.602 330.767V407.207C285.601 408.477 285.095 409.696 284.195 410.594C283.295 411.493 282.075 411.999 280.803 412Z" fill="#F2F2F2"/>
<path d="M101.895 212.741C102.629 211.803 103.148 210.715 103.416 209.555C103.683 208.395 103.693 207.191 103.444 206.026C103.195 204.862 102.694 203.766 101.975 202.817C101.256 201.867 100.337 201.086 99.2838 200.529L98.5939 127.403L84.9082 133.675L87.9184 204.399C87.099 206.229 86.9801 208.295 87.5843 210.206C88.1884 212.118 89.4737 213.741 91.1965 214.77C92.9193 215.798 94.96 216.159 96.9318 215.785C98.9036 215.411 100.67 214.328 101.895 212.741Z" fill="#9E616A"/>
<path d="M101.527 108.888C101.527 108.888 88.2135 102.439 86.3724 114.607C84.5312 126.775 76.958 158.444 76.958 158.444L99.9387 156.82L101.527 108.888Z" fill="#9E616A"/>
<path d="M101.895 212.741C102.629 211.803 103.148 210.715 103.416 209.555C103.683 208.395 103.693 207.191 103.444 206.026C103.195 204.862 102.694 203.766 101.975 202.817C101.256 201.867 100.337 201.086 99.2838 200.529L98.5939 127.403L84.9082 133.675L87.9184 204.399C87.099 206.229 86.9801 208.295 87.5843 210.206C88.1884 212.118 89.4737 213.741 91.1965 214.77C92.9193 215.798 94.96 216.159 96.9318 215.785C98.9036 215.411 100.67 214.328 101.895 212.741Z" fill="#9E616A"/>
<path d="M101.527 108.888C101.527 108.888 88.2135 102.439 86.3724 114.607C84.5312 126.775 76.958 158.444 76.958 158.444L99.9387 156.82L101.527 108.888Z" fill="#16A34A"/>
<path d="M62.9789 390.582C62.4414 390.607 61.9092 390.466 61.4545 390.179C60.9999 389.891 60.6447 389.471 60.4371 388.975C60.2295 388.479 60.1796 387.932 60.294 387.407C60.4084 386.882 60.6817 386.404 61.0769 386.04C61.1431 385.777 61.1905 385.588 61.2567 385.326C61.233 385.268 61.2092 385.211 61.1853 385.154C60.6437 383.877 59.7363 382.788 58.577 382.024C57.4176 381.26 56.058 380.855 54.669 380.86C53.28 380.865 51.9235 381.28 50.7699 382.053C49.6163 382.825 48.717 383.921 48.185 385.202C46.0587 390.317 43.3516 395.44 42.685 400.847C42.3915 403.237 42.5153 405.66 43.051 408.008C38.057 397.129 35.4638 385.304 35.4471 373.336C35.446 370.333 35.6131 367.332 35.9475 364.347C36.2239 361.901 36.6074 359.471 37.0979 357.059C39.7746 343.973 45.5215 331.707 53.8668 321.269C57.9059 319.068 61.1723 315.683 63.226 311.571C63.97 310.093 64.4958 308.515 64.7871 306.887C64.3315 306.946 63.8684 306.984 63.4128 307.013C63.2709 307.021 63.1215 307.028 62.9795 307.036L62.926 307.038C62.4252 307.061 61.9287 306.938 61.496 306.685C61.0634 306.432 60.7132 306.06 60.4876 305.613C60.2619 305.166 60.1705 304.663 60.2242 304.166C60.278 303.668 60.4746 303.196 60.7905 302.808C60.9872 302.566 61.1841 302.324 61.381 302.083C61.6799 301.71 61.9861 301.344 62.2849 300.971C62.3193 300.936 62.3518 300.898 62.382 300.859C62.7256 300.434 63.0691 300.016 63.4128 299.591C62.7856 298.619 61.942 297.805 60.9479 297.212C57.5044 295.197 52.7538 296.592 50.2665 299.703C47.7717 302.814 47.3012 307.178 48.1676 311.064C49.0196 314.371 50.4291 317.509 52.3356 320.344C52.1488 320.582 51.9546 320.814 51.7678 321.052C48.3543 325.436 45.3791 330.143 42.885 335.106C43.4915 329.546 42.7676 323.921 40.7728 318.695C38.7511 313.824 34.9616 309.722 31.6246 305.511C27.6163 300.454 19.3968 302.661 18.6907 309.073C18.6838 309.135 18.6772 309.197 18.6706 309.259C19.1663 309.538 19.6515 309.834 20.1262 310.148C20.7226 310.546 21.1847 311.114 21.452 311.779C21.7193 312.444 21.7793 313.174 21.6241 313.873C21.469 314.572 21.1059 315.208 20.5826 315.698C20.0592 316.188 19.3998 316.508 18.691 316.618L18.6184 316.629C18.795 318.413 19.1071 320.181 19.5521 321.918C20.8414 326.766 23.1199 331.296 26.2445 335.224C29.3692 339.152 33.2727 342.393 37.7103 344.744C38.0017 344.893 38.2855 345.042 38.5768 345.184C36.071 352.276 34.4992 359.663 33.9009 367.16C33.5622 371.583 33.5822 376.026 33.9607 380.445L33.9383 380.288C32.9821 375.374 30.357 370.94 26.5061 367.734C20.7867 363.042 12.7062 361.314 6.53595 357.543C5.8802 357.122 5.11774 356.898 4.33846 356.896C3.55919 356.894 2.79562 357.115 2.13783 357.532C1.48003 357.949 0.955446 358.546 0.62593 359.251C0.296413 359.956 0.17572 360.741 0.278079 361.512C0.286355 361.567 0.294758 361.622 0.303304 361.677C1.2231 362.051 2.11867 362.482 2.98481 362.967C3.48047 363.247 3.96566 363.543 4.44038 363.857C5.03676 364.254 5.49889 364.823 5.76617 365.488C6.03346 366.152 6.09346 366.882 5.93832 367.582C5.78318 368.281 5.42013 368.917 4.89674 369.407C4.37334 369.897 3.71403 370.217 3.00516 370.326L2.93252 370.337C2.88022 370.345 2.83542 370.352 2.78321 370.36C4.35481 374.107 6.56061 377.557 9.304 380.557C12.693 384.189 16.7891 387.091 21.341 389.085C25.893 391.08 30.805 392.125 35.7758 392.157H35.7832C37.1326 398.012 39.0877 403.712 41.6169 409.164H62.4567C62.5314 408.933 62.5986 408.694 62.6659 408.463C60.7369 408.584 58.8003 408.469 56.8994 408.12C58.4456 406.225 59.9917 404.316 61.5379 402.421C61.5724 402.386 61.6048 402.348 61.635 402.309C62.4193 401.339 63.2111 400.377 63.9954 399.407L63.9958 399.406C64.0376 396.434 63.696 393.468 62.9795 390.583L62.9789 390.582Z" fill="#F2F2F2"/>
<path d="M370.218 390.582C369.681 390.607 369.149 390.466 368.694 390.179C368.239 389.891 367.884 389.471 367.677 388.975C367.469 388.479 367.419 387.932 367.534 387.407C367.648 386.882 367.921 386.404 368.316 386.04C368.383 385.777 368.43 385.588 368.496 385.326C368.473 385.268 368.449 385.211 368.425 385.154C367.883 383.877 366.976 382.788 365.816 382.024C364.657 381.26 363.298 380.855 361.909 380.86C360.52 380.865 359.163 381.28 358.009 382.053C356.856 382.825 355.956 383.921 355.424 385.202C353.298 390.317 350.591 395.44 349.925 400.847C349.631 403.237 349.755 405.66 350.291 408.008C345.297 397.129 342.703 385.304 342.687 373.336C342.686 370.333 342.853 367.332 343.187 364.347C343.463 361.901 343.847 359.471 344.337 357.059C347.014 343.973 352.761 331.707 361.106 321.269C365.145 319.068 368.412 315.683 370.465 311.571C371.209 310.093 371.735 308.515 372.027 306.887C371.571 306.946 371.108 306.984 370.652 307.013C370.51 307.021 370.361 307.028 370.219 307.036L370.165 307.038C369.665 307.061 369.168 306.938 368.736 306.685C368.303 306.432 367.953 306.06 367.727 305.613C367.501 305.166 367.41 304.663 367.464 304.166C367.517 303.668 367.714 303.196 368.03 302.808C368.227 302.566 368.424 302.324 368.621 302.083C368.919 301.71 369.226 301.344 369.524 300.971C369.559 300.936 369.591 300.898 369.621 300.859C369.965 300.434 370.309 300.016 370.652 299.591C370.025 298.619 369.181 297.805 368.187 297.212C364.744 295.197 359.993 296.592 357.506 299.703C355.011 302.814 354.541 307.178 355.407 311.064C356.259 314.371 357.669 317.509 359.575 320.344C359.388 320.582 359.194 320.814 359.007 321.052C355.594 325.436 352.619 330.143 350.124 335.106C350.731 329.546 350.007 323.921 348.012 318.695C345.991 313.824 342.201 309.722 338.864 305.511C334.856 300.454 326.636 302.661 325.93 309.073C325.923 309.135 325.917 309.197 325.91 309.259C326.406 309.538 326.891 309.834 327.366 310.148C327.962 310.546 328.424 311.114 328.691 311.779C328.959 312.444 329.019 313.174 328.864 313.873C328.708 314.572 328.345 315.208 327.822 315.698C327.299 316.188 326.639 316.508 325.93 316.618L325.858 316.629C326.034 318.413 326.347 320.181 326.792 321.918C328.081 326.766 330.359 331.296 333.484 335.224C336.609 339.152 340.512 342.393 344.95 344.744C345.241 344.893 345.525 345.042 345.816 345.184C343.311 352.276 341.739 359.663 341.14 367.16C340.802 371.583 340.822 376.026 341.2 380.445L341.178 380.288C340.222 375.374 337.596 370.94 333.746 367.734C328.026 363.042 319.946 361.314 313.775 357.543C313.12 357.122 312.357 356.898 311.578 356.896C310.799 356.894 310.035 357.115 309.377 357.532C308.72 357.949 308.195 358.546 307.865 359.251C307.536 359.956 307.415 360.741 307.518 361.512C307.526 361.567 307.534 361.622 307.543 361.677C308.463 362.051 309.358 362.482 310.224 362.967C310.72 363.247 311.205 363.543 311.68 363.857C312.276 364.254 312.738 364.823 313.006 365.488C313.273 366.152 313.333 366.882 313.178 367.582C313.023 368.281 312.66 368.917 312.136 369.407C311.613 369.897 310.954 370.217 310.245 370.326L310.172 370.337C310.12 370.345 310.075 370.352 310.023 370.36C311.594 374.107 313.8 377.557 316.544 380.557C319.933 384.189 324.029 387.091 328.581 389.085C333.133 391.08 338.045 392.125 343.015 392.157H343.023C344.372 398.012 346.327 403.712 348.856 409.164H369.696C369.771 408.933 369.838 408.694 369.905 408.463C367.976 408.584 366.04 408.469 364.139 408.12C365.685 406.225 367.231 404.316 368.777 402.421C368.812 402.386 368.844 402.348 368.875 402.309C369.659 401.339 370.451 400.377 371.235 399.407L371.235 399.406C371.277 396.434 370.936 393.468 370.219 390.583L370.218 390.582Z" fill="#F2F2F2"/>
<path d="M289.967 409.028C289.907 409.028 289.847 409.027 289.787 409.026C288.262 408.938 286.83 408.267 285.788 407.152C284.746 406.037 284.174 404.563 284.193 403.038C284.193 393.757 277.554 388.343 270.976 387.094C264.397 385.847 256.233 388.452 252.825 397.087L249.727 404.854C247.049 407.523 243.419 409.021 239.636 409.021C235.852 409.021 232.223 407.523 229.545 404.854L229.361 404.671L229.475 404.438L284.193 292.634V289.894C284.117 289.049 284.118 288.2 284.194 287.355L284.193 5.76424C284.193 4.99238 284.348 4.22837 284.649 3.51754C284.951 2.80671 285.392 2.16354 285.946 1.62618C286.501 1.08883 287.159 0.668245 287.879 0.38937C288.6 0.110494 289.369 -0.0209951 290.142 0.00272156C291.667 0.0897703 293.1 0.760799 294.142 1.87614C295.184 2.99148 295.755 4.4652 295.737 5.99057V287.388C295.812 288.232 295.812 289.082 295.735 289.927L295.737 292.633L350.568 404.671L350.385 404.854C347.706 407.523 344.077 409.021 340.294 409.021C336.51 409.021 332.881 407.523 330.202 404.854L330.121 404.731L327.104 397.087C323.697 388.452 315.534 385.849 308.954 387.094C302.375 388.343 295.737 393.757 295.737 403.038V403.264C295.737 404.793 295.129 406.258 294.047 407.339C292.965 408.42 291.497 409.028 289.967 409.028Z" fill="#E6E6E6"/>
<path d="M390.127 203.819H189.802C187.473 203.816 185.241 202.891 183.594 201.247C181.947 199.602 181.021 197.373 181.019 195.047V55.1757C181.021 52.8501 181.947 50.6205 183.594 48.9761C185.241 47.3316 187.473 46.4066 189.802 46.4041H390.127C392.456 46.4067 394.688 47.3318 396.335 48.9762C397.982 50.6206 398.908 52.8502 398.91 55.1757V195.047C398.908 197.373 397.981 199.602 396.335 201.247C394.688 202.891 392.456 203.816 390.127 203.819Z" fill="white"/>
<path d="M390.128 204.907H189.802C187.185 204.904 184.675 203.864 182.824 202.016C180.974 200.168 179.932 197.662 179.929 195.048V55.1755C179.932 52.5615 180.973 50.0554 182.824 48.2071C184.675 46.3587 187.185 45.319 189.802 45.3161H390.128C392.745 45.3191 395.254 46.3588 397.105 48.2072C398.956 50.0555 399.997 52.5616 400 55.1755V195.048C399.997 197.662 398.956 200.168 397.105 202.016C395.254 203.864 392.745 204.904 390.128 204.907ZM189.802 47.4922C187.762 47.4944 185.807 48.3046 184.364 49.745C182.922 51.1855 182.111 53.1384 182.108 55.1755V195.048C182.111 197.085 182.922 199.038 184.364 200.478C185.807 201.918 187.762 202.728 189.802 202.731H390.128C392.167 202.728 394.123 201.918 395.565 200.478C397.007 199.037 397.819 197.085 397.821 195.048V55.1755C397.819 53.1385 397.008 51.1855 395.565 49.7451C394.123 48.3047 392.167 47.4945 390.128 47.4922H189.802Z" fill="#F2F2F2"/>
<path d="M319.584 55.1493H260.346C256.59 55.1451 252.989 53.6533 250.334 51.0012C247.678 48.349 246.184 44.7532 246.18 41.0026V40.7454H333.749V41.0026C333.745 44.7532 332.251 48.349 329.595 51.0012C326.94 53.6533 323.339 55.1451 319.584 55.1493Z" fill="#E6E6E6"/>
<path d="M319.841 212.564H260.604C256.848 212.56 253.247 211.068 250.592 208.416C247.936 205.764 246.442 202.168 246.438 198.417V198.16H334.007V198.417C334.003 202.168 332.509 205.764 329.853 208.416C327.198 211.068 323.597 212.56 319.841 212.564Z" fill="#E6E6E6"/>
<path d="M399.244 409.749C399.245 409.862 399.223 409.975 399.179 410.08C399.136 410.184 399.072 410.28 398.992 410.36C398.912 410.44 398.816 410.504 398.711 410.547C398.606 410.59 398.494 410.612 398.38 410.612H0.86434C0.635103 410.612 0.415275 410.521 0.25318 410.359C0.0910849 410.197 0 409.978 0 409.749C0 409.52 0.0910849 409.3 0.25318 409.138C0.415275 408.977 0.635103 408.886 0.86434 408.886H398.38C398.494 408.885 398.606 408.907 398.711 408.951C398.816 408.994 398.912 409.057 398.992 409.138C399.072 409.218 399.136 409.313 399.179 409.418C399.223 409.523 399.245 409.635 399.244 409.749Z" fill="#CCCCCC"/>
<path d="M133.868 389.655H144.339L149.32 349.32L133.866 349.321L133.868 389.655Z" fill="#9E616A"/>
<path d="M130.322 384.497L146.874 383.51V390.592L162.611 401.446C163.388 401.982 163.974 402.753 164.282 403.644C164.59 404.536 164.604 405.503 164.323 406.403C164.042 407.304 163.48 408.091 162.719 408.65C161.958 409.209 161.038 409.511 160.094 409.511H140.387L136.991 402.505L135.664 409.511H128.234L130.322 384.497Z" fill="#2F2E41"/>
<path d="M98.2563 165.306L97.2307 170.188L96.3584 188.195L131.4 183.457L134.091 162.606L130.371 156.502L98.2563 165.306Z" fill="#9E616A"/>
<path d="M80.8752 389.655H91.3461L96.3273 349.32L80.873 349.321L80.8752 389.655Z" fill="#9E616A"/>
<path d="M75.1942 318.395L75.1939 318.287L79.1134 300.013L81.5303 290.916L74.8121 237.653C73.2303 198.956 95.7105 180.354 95.8874 180.171L96.3749 179.665L132.427 178.784C151.825 190.39 149.629 253.873 153.181 297.047C153.434 300.126 156.617 304.67 155.835 307.598C149.628 330.83 151.446 355.952 146.717 356.695L132.219 356.494L124.731 322.555L131.643 296.669C128.577 296.105 126.459 281.137 126.459 281.137C125.123 279.553 120.511 266.082 120.511 266.082L114.363 228.79L104.484 292.931L106.863 307.978L104.894 313.152L96.4625 355.866L96.3729 356.554L80.4767 354.969L75.1942 318.395Z" fill="#2F2E41"/>
<path d="M77.3293 384.497L93.8818 383.51V390.592L109.619 401.446C110.396 401.982 110.981 402.753 111.289 403.644C111.597 404.536 111.612 405.503 111.331 406.403C111.05 407.304 110.488 408.091 109.727 408.65C108.966 409.209 108.046 409.511 107.102 409.511H87.3952L83.9985 402.505L82.6723 409.511H75.2422L77.3293 384.497Z" fill="#2F2E41"/>
<path d="M127.165 94.883L136.003 104.69L146.619 124.672L141.404 149.312L143.684 160.874L147.051 173.584C134.079 180.75 118.67 170.853 104.514 166.458L90.5859 172.603L91.3224 155.686L91.7001 113.063C91.7146 111.426 92.0659 109.809 92.7322 108.313C93.3984 106.818 94.3654 105.475 95.5731 104.368C96.7808 103.261 98.2035 102.413 99.7528 101.878C101.302 101.343 102.945 101.132 104.579 101.257L113.908 94.3926L127.165 94.883Z" fill="#16A34A"/>
<path d="M124.69 89.7495C134.982 89.7495 143.326 81.4171 143.326 71.1385C143.326 60.8599 134.982 52.5275 124.69 52.5275C114.398 52.5275 106.054 60.8599 106.054 71.1385C106.054 81.4171 114.398 89.7495 124.69 89.7495Z" fill="#9E616A"/>
<path d="M146.619 64.422C146.291 66.2455 138.446 67.1256 138.682 63.8812C137.155 66.9358 134.874 71.3685 137.78 76.4461C136.642 77.684 135.925 79.2495 135.732 80.9188C135.538 82.5882 135.879 84.2758 136.704 85.7403C137.53 87.0824 138.223 88.5024 138.772 89.9798C138.882 90.3385 138.961 90.7061 139.008 91.0785C139.054 91.4528 139 91.8327 138.849 92.1785C138.698 92.5242 138.457 92.8231 138.15 93.0437C137.844 93.2643 137.484 93.3985 137.108 93.4323C136.732 93.4661 136.353 93.3982 136.012 93.2357C128.11 89.3701 114.328 90.0253 105.682 92.3838C105.74 90.7041 105.717 89.0282 105.613 87.3562C105.298 89.4471 104.453 91.4231 103.159 93.0971C101.679 93.5343 100.228 93.9887 98.8222 94.4374C98.6079 94.5067 98.3787 94.5168 98.1592 94.4664C97.9396 94.416 97.7378 94.3071 97.5753 94.1513C97.4128 93.9955 97.2956 93.7986 97.2362 93.5815C97.1769 93.3645 97.1775 93.1354 97.2382 92.9187C97.5122 91.9259 97.5633 90.8849 97.388 89.87C97.0308 87.7646 95.971 85.8606 95.2222 83.8645C94.4734 81.8684 94.0471 79.5732 94.963 77.6462C96.3857 74.6549 100.395 73.7402 102.163 70.9388C104.15 67.7923 102.607 63.6908 102.918 59.9805C103.355 54.7343 107.658 50.4718 112.508 48.4125C120.906 44.846 131.413 47.7342 137.708 54.3265C138.591 53.731 139.622 53.3916 140.687 53.3459C141.752 53.3002 142.808 53.55 143.739 54.0676C145.6 55.0628 146.936 55.5805 147.771 57.5191C148.503 59.2218 146.953 62.5927 146.619 64.422Z" fill="#2F2E41"/>
<path d="M138.614 283.281L94.7696 239.494C94.2605 238.985 93.9746 238.294 93.9746 237.574C93.9746 236.855 94.2605 236.164 94.7696 235.655L125.424 205.041C125.934 204.533 126.625 204.247 127.346 204.247C128.067 204.247 128.758 204.533 129.268 205.041L173.113 248.828C173.622 249.337 173.908 250.028 173.908 250.748C173.908 251.467 173.622 252.158 173.113 252.667L142.459 283.281C141.949 283.789 141.258 284.075 140.537 284.075C139.816 284.075 139.125 283.789 138.614 283.281Z" fill="white"/>
<path d="M140.537 284.799C140.084 284.801 139.636 284.713 139.218 284.54C138.8 284.368 138.42 284.114 138.101 283.794L94.256 240.007C93.6105 239.362 93.248 238.487 93.248 237.575C93.248 236.662 93.6105 235.788 94.256 235.142L124.91 204.529C125.557 203.884 126.433 203.522 127.346 203.522C128.26 203.522 129.136 203.884 129.782 204.529L173.627 248.315C174.272 248.96 174.635 249.835 174.635 250.747C174.635 251.66 174.272 252.535 173.627 253.18L142.972 283.794C142.653 284.114 142.274 284.368 141.855 284.54C141.437 284.713 140.989 284.801 140.537 284.799ZM127.346 204.973C127.084 204.972 126.825 205.022 126.583 205.122C126.342 205.222 126.122 205.369 125.938 205.554L95.283 236.168C94.9101 236.541 94.7007 237.047 94.7007 237.575C94.7007 238.102 94.9101 238.608 95.283 238.981L139.128 282.768C139.508 283.129 140.012 283.33 140.537 283.33C141.061 283.33 141.565 283.129 141.945 282.768L172.6 252.154C172.973 251.781 173.182 251.275 173.182 250.747C173.182 250.22 172.973 249.714 172.6 249.341L128.755 205.554C128.57 205.369 128.351 205.222 128.109 205.122C127.867 205.023 127.608 204.972 127.346 204.973Z" fill="#E6E6E6"/>
<path d="M122.095 209.114C121.361 208.176 120.842 207.089 120.574 205.928C120.306 204.768 120.297 203.564 120.546 202.399C120.794 201.235 121.296 200.14 122.015 199.19C122.734 198.24 123.652 197.459 124.706 196.902L125.396 123.776L139.081 130.048L136.071 200.772C136.891 202.602 137.01 204.668 136.405 206.579C135.801 208.491 134.516 210.115 132.793 211.143C131.07 212.171 129.03 212.532 127.058 212.159C125.086 211.785 123.32 210.701 122.095 209.114Z" fill="#9E616A"/>
<path d="M122.463 105.262C122.463 105.262 135.777 98.8122 137.618 110.98C139.459 123.148 147.032 154.817 147.032 154.817L124.051 153.194L122.463 105.262Z" fill="#9E616A"/>
<path d="M122.095 209.114C121.361 208.176 120.842 207.089 120.574 205.928C120.306 204.768 120.297 203.564 120.546 202.399C120.794 201.235 121.296 200.14 122.015 199.19C122.734 198.24 123.652 197.459 124.706 196.902L125.396 123.776L139.081 130.048L136.071 200.772C136.891 202.602 137.01 204.668 136.405 206.579C135.801 208.491 134.516 210.115 132.793 211.143C131.07 212.171 129.03 212.532 127.058 212.159C125.086 211.785 123.32 210.701 122.095 209.114Z" fill="#9E616A"/>
<path d="M122.463 105.262C122.463 105.262 135.777 98.8122 137.618 110.98C139.459 123.148 147.032 154.817 147.032 154.817L124.051 153.194L122.463 105.262Z" fill="#16A34A"/>
</g>
<defs>
<clipPath id="clip0_101_1125">
<rect width="400" height="412" fill="white"/>
</clipPath>
</defs>
</svg>
