<svg width="511" height="526" viewBox="0 0 511 526" fill="none" xmlns="http://www.w3.org/2000/svg">
<g clip-path="url(#clip0_130_1294)">
<path d="M358.725 526H218.868C217.243 525.998 215.684 525.353 214.534 524.206C213.385 523.058 212.738 521.503 212.736 519.88V422.29C212.738 420.668 213.385 419.112 214.534 417.965C215.684 416.817 217.243 416.172 218.868 416.17H358.725C360.351 416.172 361.91 416.817 363.059 417.965C364.209 419.112 364.855 420.668 364.857 422.29V519.88C364.855 521.503 364.209 523.058 363.059 524.205C361.91 525.353 360.351 525.998 358.725 526Z" fill="#F2F2F2"/>
<path d="M130.171 271.606C131.109 270.408 131.772 269.02 132.114 267.539C132.456 266.058 132.468 264.52 132.15 263.034C131.832 261.547 131.192 260.148 130.273 258.936C129.355 257.723 128.182 256.727 126.836 256.016L125.954 162.655L108.471 170.663L112.316 260.956C111.269 263.292 111.118 265.93 111.889 268.37C112.661 270.811 114.303 272.883 116.504 274.196C118.705 275.509 121.312 275.97 123.831 275.493C126.35 275.016 128.606 273.633 130.171 271.606Z" fill="#9E616A"/>
<path d="M129.7 139.018C129.7 139.018 112.692 130.784 110.34 146.319C107.988 161.853 98.3135 202.285 98.3135 202.285L127.671 200.213L129.7 139.018Z" fill="#9E616A"/>
<path d="M130.171 271.606C131.109 270.408 131.772 269.02 132.114 267.539C132.456 266.058 132.468 264.52 132.15 263.034C131.832 261.547 131.192 260.148 130.273 258.936C129.355 257.723 128.182 256.727 126.836 256.016L125.954 162.655L108.471 170.663L112.316 260.956C111.269 263.292 111.118 265.93 111.889 268.37C112.661 270.811 114.303 272.883 116.504 274.196C118.705 275.509 121.312 275.97 123.831 275.493C126.35 275.016 128.606 273.633 130.171 271.606Z" fill="#9E616A"/>
<path d="M129.7 139.018C129.7 139.018 112.692 130.784 110.34 146.319C107.988 161.853 98.3135 202.285 98.3135 202.285L127.671 200.213L129.7 139.018Z" fill="#16A34A"/>
<path d="M80.4551 498.656C79.7684 498.687 79.0886 498.508 78.5077 498.141C77.9269 497.774 77.4732 497.237 77.208 496.604C76.9428 495.971 76.8789 495.272 77.0251 494.602C77.1713 493.931 77.5205 493.322 78.0253 492.856C78.1098 492.521 78.1705 492.28 78.255 491.945C78.2248 491.872 78.1943 491.799 78.1637 491.726C77.4719 490.095 76.3127 488.705 74.8316 487.729C73.3506 486.754 71.6137 486.237 69.8392 486.243C68.0648 486.25 66.3319 486.78 64.8581 487.766C63.3843 488.753 62.2355 490.152 61.5559 491.788C58.8396 498.317 55.3812 504.857 54.5297 511.761C54.1547 514.813 54.3129 517.906 54.9973 520.904C48.6174 507.014 45.3045 491.918 45.2832 476.638C45.2819 472.804 45.4953 468.972 45.9225 465.162C46.2756 462.038 46.7655 458.937 47.3921 455.857C50.8116 439.15 58.1533 423.489 68.8144 410.163C73.9743 407.353 78.1472 403.032 80.7708 397.783C81.7212 395.895 82.393 393.881 82.7651 391.802C82.1831 391.878 81.5914 391.926 81.0094 391.964C80.8281 391.973 80.6372 391.983 80.4559 391.992L80.3875 391.995C79.7478 392.024 79.1134 391.867 78.5607 391.545C78.0081 391.222 77.5607 390.746 77.2724 390.176C76.9842 389.605 76.8673 388.963 76.936 388.328C77.0047 387.692 77.2559 387.09 77.6594 386.594C77.9107 386.285 78.1622 385.977 78.4138 385.669C78.7956 385.192 79.1868 384.726 79.5685 384.25C79.6125 384.204 79.6539 384.157 79.6925 384.107C80.1315 383.564 80.5704 383.03 81.0094 382.488C80.2082 381.246 79.1305 380.207 77.8604 379.45C73.4615 376.878 67.3926 378.659 64.215 382.631C61.0279 386.602 60.4268 392.173 61.5336 397.135C62.6221 401.357 64.4227 405.363 66.8582 408.982C66.6196 409.287 66.3715 409.582 66.133 409.887C61.7721 415.484 57.9713 421.493 54.7851 427.83C55.56 420.731 54.6351 413.55 52.0868 406.878C49.504 400.659 44.663 395.422 40.4 390.046C35.2793 383.589 24.779 386.407 23.8769 394.593C23.8681 394.672 23.8596 394.751 23.8513 394.83C24.4845 395.187 25.1043 395.565 25.7108 395.965C26.4727 396.473 27.063 397.199 27.4045 398.048C27.7459 398.897 27.8226 399.828 27.6244 400.721C27.4262 401.614 26.9624 402.426 26.2938 403.052C25.6251 403.677 24.7828 404.086 23.8773 404.225L23.7845 404.24C24.0101 406.517 24.4089 408.774 24.9773 410.992C26.6245 417.182 29.5352 422.966 33.5269 427.98C37.5187 432.995 42.5054 437.133 48.1745 440.134C48.5467 440.324 48.9093 440.515 49.2815 440.696C46.0803 449.75 44.0723 459.181 43.308 468.752C42.8753 474.399 42.9009 480.071 43.3844 485.714L43.3557 485.514C42.1342 479.24 38.7806 473.578 33.8612 469.486C26.5546 463.495 16.2317 461.289 8.34923 456.474C7.51151 455.938 6.53746 455.651 5.54194 455.649C4.54642 455.646 3.57096 455.928 2.73063 456.461C1.89029 456.993 1.22013 457.755 0.799177 458.655C0.37822 459.556 0.224034 460.557 0.354798 461.542C0.36537 461.612 0.376105 461.682 0.387023 461.753C1.56207 462.23 2.70615 462.78 3.81265 463.4C4.44585 463.757 5.06568 464.135 5.67214 464.535C6.43401 465.043 7.02438 465.769 7.36584 466.618C7.7073 467.466 7.78394 468.398 7.58575 469.291C7.38756 470.184 6.92377 470.996 6.25513 471.621C5.5865 472.247 4.74422 472.656 3.83864 472.795L3.74585 472.809C3.67904 472.819 3.6218 472.828 3.5551 472.838C5.56282 477.623 8.38073 482.026 11.8854 485.857C16.2149 490.493 21.4476 494.198 27.2627 496.745C33.0779 499.292 39.3529 500.626 45.7031 500.666H45.7126C47.4364 508.142 49.934 515.419 53.1652 522.38H79.788C79.8835 522.085 79.9693 521.78 80.0552 521.485C77.5909 521.639 75.117 521.492 72.6885 521.046C74.6638 518.627 76.639 516.189 78.6143 513.77C78.6583 513.725 78.6997 513.678 78.7383 513.628C79.7402 512.39 80.7517 511.161 81.7537 509.923L81.7542 509.921C81.8076 506.126 81.3713 502.34 80.4559 498.657L80.4551 498.656Z" fill="#F2F2F2"/>
<path d="M472.954 498.656C472.267 498.687 471.588 498.508 471.007 498.141C470.426 497.774 469.972 497.237 469.707 496.604C469.442 495.971 469.378 495.272 469.524 494.602C469.67 493.931 470.02 493.322 470.524 492.856C470.609 492.521 470.669 492.28 470.754 491.945C470.724 491.872 470.693 491.799 470.663 491.726C469.971 490.095 468.812 488.705 467.331 487.729C465.85 486.754 464.113 486.237 462.338 486.243C460.564 486.25 458.831 486.78 457.357 487.766C455.883 488.753 454.734 490.152 454.055 491.788C451.339 498.317 447.88 504.857 447.029 511.761C446.654 514.813 446.812 517.906 447.496 520.904C441.116 507.014 437.804 491.918 437.782 476.638C437.781 472.804 437.994 468.972 438.422 465.162C438.775 462.038 439.265 458.937 439.891 455.857C443.311 439.15 450.652 423.489 461.313 410.163C466.473 407.353 470.646 403.032 473.27 397.783C474.22 395.895 474.892 393.881 475.264 391.802C474.682 391.878 474.09 391.926 473.508 391.964C473.327 391.973 473.136 391.983 472.955 391.992L472.887 391.995C472.247 392.024 471.612 391.867 471.06 391.545C470.507 391.222 470.06 390.746 469.771 390.176C469.483 389.605 469.366 388.963 469.435 388.328C469.504 387.692 469.755 387.09 470.158 386.594C470.41 386.285 470.661 385.977 470.913 385.669C471.295 385.192 471.686 384.726 472.067 384.25C472.111 384.204 472.153 384.157 472.191 384.107C472.63 383.564 473.069 383.03 473.508 382.488C472.707 381.246 471.629 380.207 470.359 379.45C465.96 376.878 459.892 378.659 456.714 382.631C453.527 386.602 452.926 392.173 454.033 397.135C455.121 401.357 456.922 405.363 459.357 408.982C459.119 409.287 458.87 409.582 458.632 409.887C454.271 415.484 450.47 421.493 447.284 427.83C448.059 420.731 447.134 413.55 444.586 406.878C442.003 400.659 437.162 395.422 432.899 390.046C427.778 383.589 417.278 386.407 416.376 394.593C416.367 394.672 416.359 394.751 416.35 394.83C416.983 395.187 417.603 395.565 418.21 395.965C418.972 396.473 419.562 397.199 419.903 398.048C420.245 398.897 420.322 399.828 420.123 400.721C419.925 401.614 419.461 402.426 418.793 403.052C418.124 403.677 417.282 404.086 416.376 404.225L416.284 404.24C416.509 406.517 416.908 408.774 417.476 410.992C419.123 417.182 422.034 422.966 426.026 427.98C430.018 432.995 435.004 437.133 440.674 440.134C441.046 440.324 441.408 440.515 441.78 440.696C438.579 449.75 436.571 459.181 435.807 468.752C435.374 474.399 435.4 480.071 435.883 485.714L435.855 485.514C434.633 479.24 431.28 473.578 426.36 469.486C419.054 463.495 408.731 461.289 400.848 456.474C400.011 455.938 399.036 455.651 398.041 455.649C397.045 455.646 396.07 455.928 395.23 456.461C394.389 456.993 393.719 457.755 393.298 458.655C392.877 459.556 392.723 460.557 392.854 461.542C392.864 461.612 392.875 461.682 392.886 461.753C394.061 462.23 395.205 462.78 396.312 463.4C396.945 463.757 397.565 464.135 398.171 464.535C398.933 465.043 399.523 465.769 399.865 466.618C400.206 467.466 400.283 468.398 400.085 469.291C399.887 470.184 399.423 470.996 398.754 471.621C398.086 472.247 397.243 472.656 396.338 472.795L396.245 472.809C396.178 472.819 396.121 472.828 396.054 472.838C398.062 477.623 400.88 482.026 404.384 485.857C408.714 490.493 413.947 494.198 419.762 496.745C425.577 499.292 431.852 500.626 438.202 500.666H438.212C439.935 508.142 442.433 515.419 445.664 522.38H472.287C472.382 522.085 472.468 521.78 472.554 521.485C470.09 521.639 467.616 521.492 465.188 521.046C467.163 518.627 469.138 516.189 471.113 513.77C471.157 513.725 471.199 513.678 471.237 513.628C472.239 512.39 473.251 511.161 474.253 509.923L474.253 509.921C474.307 506.126 473.87 502.34 472.955 498.657L472.954 498.656Z" fill="#F2F2F2"/>
<path d="M370.433 522.206C370.356 522.206 370.28 522.204 370.203 522.202C368.255 522.091 366.425 521.235 365.094 519.811C363.763 518.387 363.033 516.505 363.057 514.558C363.057 502.709 354.576 495.797 346.171 494.203C337.767 492.61 327.337 495.936 322.984 506.961L319.027 516.877C315.605 520.284 310.969 522.197 306.135 522.197C301.302 522.197 296.665 520.284 293.244 516.877L293.009 516.643L293.155 516.346L363.057 373.606V370.107C362.96 369.029 362.96 367.944 363.058 366.866L363.057 7.3592C363.057 6.37376 363.255 5.39836 363.64 4.49084C364.024 3.58332 364.588 2.76218 365.297 2.07615C366.006 1.39011 366.845 0.853148 367.766 0.497108C368.687 0.141068 369.67 -0.0268044 370.656 0.00347462C372.605 0.11461 374.435 0.971311 375.766 2.39526C377.097 3.81921 377.827 5.70072 377.804 7.64815V366.908C377.9 367.986 377.9 369.071 377.802 370.149L377.804 373.605L447.851 516.643L447.617 516.877C444.195 520.284 439.559 522.197 434.725 522.197C429.892 522.197 425.256 520.284 421.834 516.877L421.73 516.719L417.876 506.961C413.523 495.937 403.095 492.613 394.689 494.203C386.284 495.797 377.804 502.709 377.804 514.558V514.847C377.804 516.798 377.027 518.67 375.645 520.05C374.263 521.43 372.388 522.205 370.433 522.206Z" fill="#E6E6E6"/>
<path d="M498.387 260.215H242.472C239.497 260.212 236.645 259.031 234.541 256.932C232.438 254.832 231.254 251.986 231.251 249.017V70.4428C231.254 67.4737 232.438 64.6272 234.541 62.5277C236.645 60.4282 239.497 59.2473 242.472 59.244H498.387C501.362 59.2474 504.214 60.4284 506.318 62.5279C508.421 64.6273 509.604 67.4738 509.608 70.4428V249.017C509.604 251.986 508.421 254.832 506.318 256.931C504.214 259.031 501.362 260.212 498.387 260.215Z" fill="white"/>
<path d="M498.388 261.604H242.472C239.128 261.601 235.922 260.273 233.558 257.914C231.193 255.554 229.863 252.354 229.859 249.017V70.4426C229.863 67.1052 231.193 63.9057 233.558 61.5459C235.922 59.1861 239.128 57.8588 242.472 57.855H498.388C501.732 57.8589 504.937 59.1863 507.302 61.5461C509.666 63.9059 510.996 67.1053 511 70.4426V249.017C510.996 252.354 509.666 255.554 507.302 257.913C504.937 260.273 501.731 261.6 498.388 261.604ZM242.472 60.6333C239.866 60.6361 237.368 61.6705 235.525 63.5095C233.683 65.3484 232.646 67.8418 232.643 70.4426V249.017C232.646 251.618 233.683 254.111 235.525 255.95C237.368 257.789 239.866 258.823 242.472 258.826H498.388C500.993 258.823 503.492 257.789 505.334 255.95C507.177 254.111 508.213 251.618 508.216 249.017V70.4426C508.213 67.8419 507.177 65.3485 505.334 63.5095C503.492 61.6706 500.994 60.6362 498.388 60.6333H242.472Z" fill="#F2F2F2"/>
<path d="M408.268 70.4091H332.592C327.794 70.4037 323.194 68.4991 319.801 65.1132C316.409 61.7272 314.501 57.1364 314.495 52.348V52.0196H426.364V52.348C426.359 57.1364 424.451 61.7272 421.058 65.1132C417.665 68.4991 413.066 70.4037 408.268 70.4091Z" fill="#E6E6E6"/>
<path d="M408.597 271.38H332.921C328.123 271.375 323.523 269.47 320.131 266.084C316.738 262.698 314.83 258.108 314.824 253.319V252.991H426.693V253.319C426.688 258.108 424.78 262.698 421.387 266.084C417.995 269.47 413.395 271.375 408.597 271.38Z" fill="#E6E6E6"/>
<path d="M510.035 523.126C510.035 523.271 510.007 523.414 509.952 523.548C509.896 523.682 509.815 523.804 509.712 523.906C509.61 524.009 509.488 524.09 509.354 524.145C509.219 524.2 509.076 524.228 508.93 524.228H1.10419C0.811344 524.228 0.530513 524.112 0.323437 523.905C0.116361 523.699 0 523.418 0 523.126C0 522.834 0.116361 522.553 0.323437 522.347C0.530513 522.14 0.811344 522.024 1.10419 522.024H508.93C509.076 522.023 509.219 522.052 509.354 522.107C509.488 522.162 509.61 522.243 509.712 522.346C509.815 522.448 509.896 522.57 509.952 522.704C510.007 522.838 510.035 522.981 510.035 523.126Z" fill="#CCCCCC"/>
<path d="M171.016 497.472H184.393L190.756 445.977L171.014 445.978L171.016 497.472Z" fill="#9E616A"/>
<path d="M166.486 490.887L187.631 489.627V498.669L207.735 512.526C208.728 513.211 209.476 514.194 209.87 515.332C210.263 516.471 210.282 517.705 209.923 518.855C209.564 520.005 208.846 521.01 207.874 521.724C206.902 522.437 205.726 522.822 204.52 522.822H179.345L175.006 513.878L173.311 522.822H163.819L166.486 490.887Z" fill="#2F2E41"/>
<path d="M125.522 211.046L124.212 217.279L123.098 240.269L167.863 234.219L171.301 207.598L166.549 199.806L125.522 211.046Z" fill="#9E616A"/>
<path d="M103.318 497.472H116.695L123.058 445.977L103.315 445.978L103.318 497.472Z" fill="#9E616A"/>
<path d="M96.0607 406.495L96.0602 406.357L101.067 383.027L104.155 371.413L95.5725 303.411C93.5518 254.006 122.27 230.257 122.496 230.024L123.119 229.378L169.176 228.253C193.956 243.071 191.151 324.12 195.689 379.24C196.012 383.17 200.079 388.972 199.079 392.71C191.15 422.37 193.472 454.444 187.431 455.392L168.909 455.135L159.343 411.805L168.174 378.757C164.257 378.037 161.551 358.928 161.551 358.928C159.845 356.905 153.953 339.706 153.953 339.706L146.098 292.097L133.478 373.984L136.517 393.195L134.002 399.801L123.231 454.334L123.116 455.212L102.809 453.189L96.0607 406.495Z" fill="#2F2E41"/>
<path d="M98.7884 490.887L119.934 489.627V498.669L140.038 512.526C141.031 513.211 141.779 514.194 142.172 515.332C142.566 516.471 142.585 517.705 142.225 518.855C141.866 520.005 141.148 521.01 140.176 521.724C139.204 522.437 138.029 522.822 136.822 522.822H111.648L107.308 513.878L105.614 522.822H96.1221L98.7884 490.887Z" fill="#2F2E41"/>
<path d="M162.454 121.137L173.744 133.658L187.306 159.169L180.644 190.626L183.557 205.387L187.858 221.614C171.286 230.763 151.601 218.128 133.517 212.516L115.724 220.362L116.665 198.764L117.147 144.347C117.166 142.257 117.614 140.193 118.465 138.284C119.317 136.374 120.552 134.659 122.095 133.246C123.638 131.833 125.455 130.751 127.434 130.068C129.413 129.385 131.512 129.115 133.6 129.275L145.518 120.511L162.454 121.137Z" fill="#16A34A"/>
<path d="M159.292 114.583C172.44 114.583 183.099 103.945 183.099 90.8224C183.099 77.6998 172.44 67.0618 159.292 67.0618C146.143 67.0618 135.484 77.6998 135.484 90.8224C135.484 103.945 146.143 114.583 159.292 114.583Z" fill="#9E616A"/>
<path d="M187.305 82.2474C186.886 84.5755 176.864 85.6992 177.165 81.5571C175.216 85.4568 172.302 91.1161 176.013 97.5986C174.559 99.179 173.644 101.178 173.397 103.309C173.15 105.44 173.584 107.595 174.639 109.465C175.695 111.178 176.579 112.991 177.28 114.877C177.422 115.335 177.523 115.804 177.582 116.28C177.642 116.758 177.572 117.243 177.379 117.684C177.186 118.126 176.878 118.507 176.487 118.789C176.095 119.07 175.635 119.242 175.155 119.285C174.674 119.328 174.191 119.241 173.756 119.034C163.66 114.099 146.054 114.935 135.009 117.946C135.083 115.802 135.053 113.662 134.921 111.528C134.517 114.197 133.439 116.72 131.786 118.857C129.895 119.415 128.04 119.995 126.245 120.568C125.971 120.657 125.678 120.669 125.398 120.605C125.117 120.541 124.86 120.402 124.652 120.203C124.444 120.004 124.295 119.753 124.219 119.475C124.143 119.198 124.144 118.906 124.221 118.629C124.571 117.362 124.637 116.033 124.413 114.737C123.956 112.049 122.603 109.618 121.646 107.07C120.689 104.521 120.145 101.591 121.315 99.1308C123.132 95.3118 128.254 94.1441 130.513 90.5675C133.052 86.5503 131.08 81.314 131.477 76.5771C132.036 69.8793 137.533 64.4373 143.729 61.8081C154.457 57.2548 167.879 60.9423 175.922 69.3586C177.05 68.5983 178.367 68.165 179.727 68.1066C181.087 68.0483 182.437 68.3672 183.626 69.0281C186.003 70.2986 187.71 70.9596 188.777 73.4345C189.712 75.6084 187.732 79.912 187.305 82.2474Z" fill="#2F2E41"/>
<path d="M177.08 361.664L121.068 305.762C120.418 305.112 120.053 304.23 120.053 303.311C120.053 302.392 120.418 301.511 121.068 300.86L160.229 261.776C160.881 261.127 161.764 260.762 162.685 260.762C163.606 260.762 164.489 261.127 165.141 261.776L221.152 317.678C221.803 318.329 222.168 319.21 222.168 320.129C222.168 321.048 221.803 321.93 221.152 322.58L181.992 361.664C181.34 362.313 180.457 362.678 179.536 362.678C178.615 362.678 177.732 362.313 177.08 361.664Z" fill="white"/>
<path d="M179.535 363.603C178.957 363.605 178.385 363.493 177.851 363.272C177.316 363.052 176.831 362.728 176.424 362.319L120.412 306.417C119.587 305.593 119.124 304.476 119.124 303.311C119.124 302.147 119.587 301.03 120.412 300.206L159.572 261.121C160.398 260.298 161.517 259.836 162.684 259.836C163.851 259.836 164.971 260.298 165.796 261.121L221.808 317.023C222.632 317.847 223.095 318.964 223.095 320.129C223.095 321.294 222.632 322.411 221.808 323.235L182.647 362.319C182.239 362.728 181.754 363.052 181.22 363.272C180.686 363.493 180.113 363.605 179.535 363.603ZM162.684 261.688C162.35 261.687 162.019 261.752 161.71 261.879C161.401 262.007 161.121 262.194 160.885 262.431L121.724 301.515C121.247 301.992 120.98 302.638 120.98 303.311C120.98 303.985 121.247 304.631 121.724 305.107L177.736 361.009C178.221 361.47 178.865 361.727 179.535 361.727C180.205 361.727 180.849 361.47 181.335 361.009L220.496 321.925C220.972 321.448 221.24 320.802 221.24 320.129C221.24 319.456 220.972 318.81 220.496 318.333L164.484 262.431C164.248 262.194 163.967 262.007 163.659 261.879C163.35 261.752 163.018 261.687 162.684 261.688Z" fill="#E6E6E6"/>
<path d="M155.976 266.976C155.039 265.778 154.375 264.39 154.034 262.909C153.692 261.428 153.679 259.89 153.997 258.403C154.315 256.917 154.956 255.518 155.874 254.306C156.793 253.093 157.966 252.096 159.312 251.385L160.193 158.024L177.677 166.032L173.831 256.326C174.878 258.661 175.03 261.3 174.258 263.74C173.486 266.18 171.844 268.253 169.644 269.566C167.443 270.879 164.836 271.34 162.317 270.863C159.798 270.385 157.542 269.002 155.976 266.976Z" fill="#9E616A"/>
<path d="M156.446 134.387C156.446 134.387 173.454 126.153 175.806 141.688C178.158 157.223 187.833 197.654 187.833 197.654L158.475 195.582L156.446 134.387Z" fill="#9E616A"/>
<path d="M155.976 266.976C155.039 265.778 154.375 264.39 154.034 262.909C153.692 261.428 153.679 259.89 153.997 258.403C154.315 256.917 154.956 255.518 155.874 254.306C156.793 253.093 157.966 252.096 159.312 251.385L160.193 158.024L177.677 166.032L173.831 256.326C174.878 258.661 175.03 261.3 174.258 263.74C173.486 266.18 171.844 268.253 169.644 269.566C167.443 270.879 164.836 271.34 162.317 270.863C159.798 270.385 157.542 269.002 155.976 266.976Z" fill="#9E616A"/>
<path d="M156.446 134.387C156.446 134.387 173.454 126.153 175.806 141.688C178.158 157.223 187.833 197.654 187.833 197.654L158.475 195.582L156.446 134.387Z" fill="#16A34A"/>
</g>
<defs>
<clipPath id="clip0_130_1294">
<rect width="511" height="526" fill="white"/>
</clipPath>
</defs>
</svg>
