<svg width="461" height="423" viewBox="0 0 461 423" fill="none" xmlns="http://www.w3.org/2000/svg">
<g clip-path="url(#clip0_118_1160)">
<path d="M295.352 337.809L299.782 347.764C296.181 347.189 292.832 350.271 292.757 354.229C292.682 358.188 295.894 362.306 299.495 362.868C298.807 365.941 295.837 367.296 293.259 368.538C290.681 369.78 287.902 371.84 288.094 375.114C288.248 377.744 290.417 380.065 292.721 380.998C295.025 381.932 297.442 381.788 299.775 381.631C296.24 385.338 295.895 392.305 299 397.304C302.105 402.302 308.306 404.763 312.949 402.839C309.668 406.929 310.381 414.419 314.452 418.639C318.557 422.894 324.505 423.306 329.705 422.858C342.947 421.736 355.565 416.725 365.979 408.451C369.954 405.285 373.667 401.562 375.935 396.705C378.203 391.849 378.871 385.7 376.758 380.173C377.328 387.097 384.242 392.565 390.462 392.871C396.683 393.177 402.113 389.665 406.728 385.661C412.866 380.337 418.548 372.873 417.706 363.663C417.289 359.104 415.302 354.719 413.353 350.472L409.575 342.238C408.05 338.914 406.49 335.534 404.194 332.744C401.898 329.955 398.712 327.795 395.523 327.816C396.252 324.477 396.985 321.015 396.374 317.468C395.763 313.921 393.423 310.249 390.241 309.418C386.192 308.361 382.76 312.106 378.688 311.753C374.77 311.414 371.531 307.472 367.726 305.91C366.159 305.231 364.429 305.025 362.747 305.317C361.065 305.608 359.504 306.385 358.256 307.552C355.844 309.912 354.839 313.9 355.704 317.672C356.462 320.977 358.48 323.892 359.705 327.08C360.93 330.267 361.12 334.366 358.768 336.107C355.929 338.207 351.609 335.349 349.391 331.891C347.173 328.433 345.9 324.245 343.095 321.337C339.785 317.904 334.604 317.1 331.196 319.489C327.788 321.879 326.485 327.23 328.203 331.779C329.608 335.498 332.826 339.261 331.71 342.763C330.53 346.464 325.369 345.996 322.256 343.38C319.142 340.764 317.075 336.823 313.999 334.149C310.876 331.432 306.797 330.242 303.217 331.002C301.4 331.424 299.72 332.299 298.329 333.544C296.939 334.789 295.884 336.365 295.261 338.126" fill="#E6E6E6"/>
<path d="M367.074 309.834L357.882 314.114C356.501 314.798 354.934 315.009 353.421 314.717C352.086 314.4 351.185 313.583 350.948 312.472L348.809 302.461C348.405 300.573 349.966 298.338 352.52 297.149L357.596 294.785C360.15 293.596 362.86 293.842 364.04 295.369L370.295 303.464C370.988 304.361 371.03 305.579 370.411 306.805C369.659 308.153 368.486 309.217 367.074 309.834Z" fill="#3F3D56"/>
<path d="M82.0627 124.801C90.7039 101.098 104.189 79.4647 121.654 61.2866C136.472 45.87 159.534 46.5106 159.534 46.5106L159.666 46.3468C165.216 39.4872 172.664 34.423 181.075 31.7895C189.487 29.1561 198.487 29.0708 206.946 31.5442C209.145 32.1766 210.836 32.4569 211.641 32.1752C226.306 27.0313 225.617 15.4211 238.269 6.06803C260.423 -10.3087 333.906 8.45052 344.268 38.5857C352.666 63.0095 390.152 74.8476 404.157 93.5299C406.347 96.4511 408.496 99.4061 410.603 102.395C411.591 103.784 412.568 105.183 413.534 106.592C423.457 120.993 432.359 136.075 440.174 151.726C445.298 161.951 449.752 172.501 453.507 183.307C468.113 226.099 463.118 257.981 422.846 250.105C418.078 249.17 413.426 248.334 408.887 247.596C402.316 246.521 395.973 245.638 389.86 244.946C381.628 244.007 373.796 243.393 366.364 243.102C363.865 243.001 361.412 242.933 359.005 242.899C323.414 242.404 297.014 249.118 276.902 259.539C273.493 261.301 270.262 263.165 267.21 265.132C262.547 268.118 258.096 271.423 253.887 275.023C248.062 280.032 242.69 285.549 237.834 291.507L237.568 291.834C214.044 320.672 206.302 352.597 189.939 358.218C119.99 382.25 75.7506 295.132 71.2137 209.911C70.9846 205.617 70.8581 201.334 70.834 197.065C70.8199 195.156 70.8292 193.253 70.8621 191.354C70.9339 186.402 71.1518 181.481 71.5166 176.62C71.6528 174.761 71.8109 172.912 71.9907 171.073C72.1889 169.09 72.4044 167.119 72.6536 165.16C74.433 150.801 77.546 137.139 82.0627 124.801Z" fill="#16A34A"/>
<path d="M298.869 171.689C293.283 174.295 293.191 185.97 294.942 189.753L298.117 196.601L318.351 187.179L315.177 180.331C313.422 176.55 304.459 169.091 298.869 171.689Z" fill="#3F3D56"/>
<path d="M244.494 269.997C244.138 269.997 243.787 269.911 243.471 269.746C243.155 269.581 242.884 269.342 242.68 269.05C242.476 268.757 242.345 268.42 242.299 268.066C242.253 267.712 242.292 267.352 242.415 267.017C242.514 266.743 242.666 266.492 242.863 266.277C243.059 266.063 243.297 265.89 243.561 265.768L348.057 217.11C348.32 216.988 348.605 216.918 348.895 216.906C349.186 216.893 349.475 216.939 349.748 217.038C350.021 217.138 350.272 217.291 350.486 217.488C350.7 217.685 350.873 217.922 350.995 218.186C351.242 218.72 351.267 219.329 351.066 219.881C350.864 220.433 350.453 220.883 349.921 221.131L245.425 269.789C245.133 269.925 244.815 269.996 244.494 269.997Z" fill="#3F3D56"/>
<path d="M326.233 191.545L296.363 205.454L343.219 306.525L373.089 292.617L326.233 191.545Z" fill="#E6E6E6"/>
<path d="M214.104 64.3135C208.518 66.92 208.426 78.5951 210.178 82.378L213.352 89.2253L233.586 79.8034L230.412 72.9561C228.657 69.1747 219.695 61.7157 214.104 64.3135Z" fill="#3F3D56"/>
<path d="M339.27 321.453L330.078 325.733C328.697 326.417 327.13 326.628 325.617 326.336C324.282 326.019 323.38 325.202 323.143 324.091L321.005 314.08C320.601 312.192 322.162 309.957 324.715 308.768L329.792 306.404C332.345 305.215 335.056 305.461 336.236 306.988L342.49 315.083C343.184 315.98 343.226 317.198 342.607 318.424C341.854 319.772 340.682 320.836 339.27 321.453Z" fill="#3F3D56"/>
<path d="M311.01 335.505L301.818 339.784C300.437 340.468 298.87 340.68 297.357 340.387C296.022 340.071 295.121 339.253 294.884 338.143L292.745 328.132C292.341 326.243 293.902 324.009 296.456 322.82L301.532 320.456C304.086 319.267 306.796 319.513 307.976 321.04L314.231 329.134C314.925 330.032 314.967 331.25 314.347 332.476C313.595 333.824 312.423 334.887 311.01 335.505Z" fill="#3F3D56"/>
<path d="M249.439 101.363L219.569 115.271L314.282 319.575L344.152 305.667L249.439 101.363Z" fill="#E6E6E6"/>
<path d="M280.431 206.681L277.08 199.29L279.009 198.398L282.351 205.766L330.736 313.284L328.808 314.182" fill="#3F3D56"/>
<path d="M318.234 200.537L314.882 193.146L316.812 192.254L320.153 199.622L368.538 307.14L366.611 308.038" fill="#3F3D56"/>
<path d="M263.537 117.713L223.065 136.558C220.488 132.541 212.72 111.952 214.464 105.844L213.155 100.019L241.101 87.0064L244.841 91.6179C250.394 93.3254 261.203 112.663 263.537 117.713Z" fill="#E6E6E6"/>
<path d="M242.269 87.2556L213.431 100.684C212.366 101.179 211.233 100.997 210.899 100.277C210.851 100.173 210.821 100.062 210.811 99.9476L209.318 83.9903C209.254 83.307 209.838 82.5326 210.729 82.1177L229.853 73.2126C230.744 72.7976 231.711 72.8502 232.191 73.3399L243.397 84.7742C243.97 85.359 243.659 86.3601 242.702 87.0102C242.564 87.1035 242.419 87.1855 242.269 87.2556Z" fill="#E6E6E6"/>
<path d="M264.887 212.275C264.575 212.276 264.264 212.239 263.96 212.166C263.533 212.077 263.131 211.891 262.786 211.622C262.441 211.354 262.162 211.01 261.97 210.617L244.339 172.586C243.61 171.011 244.589 168.998 246.523 168.097L272.339 156.076C274.273 155.175 276.44 155.724 277.17 157.298L294.801 195.33C294.977 195.73 295.059 196.166 295.041 196.603C295.024 197.041 294.906 197.468 294.698 197.853C294.246 198.724 293.512 199.417 292.617 199.818L266.801 211.839C266.202 212.122 265.549 212.271 264.887 212.275Z" fill="#3F3D56"/>
<path d="M268.417 218.032L238.547 231.94L285.403 333.012L315.273 319.103L268.417 218.032Z" fill="#E6E6E6"/>
<path d="M231.618 88.9227L222.858 93.0015C221.168 93.7886 218.888 92.477 217.776 90.0783C216.664 87.6795 217.134 85.087 218.825 84.2999L227.584 80.2211C229.274 79.434 231.555 80.7456 232.667 83.1443C233.779 85.5431 233.308 88.1356 231.618 88.9227Z" fill="#3F3D56"/>
<path d="M241.636 197.904C236.05 200.51 235.958 212.185 237.709 215.968L240.884 222.816L261.118 213.394L257.944 206.546C256.189 202.765 247.226 195.306 241.636 197.904Z" fill="#3F3D56"/>
<path d="M148.842 174.599C146.869 175.916 144.85 172.781 146.86 171.522C148.833 170.205 150.852 173.34 148.842 174.599Z" fill="#E6E6E6"/>
<path d="M354.203 129.545C352.23 130.862 350.211 127.727 352.222 126.468C354.195 125.151 356.214 128.286 354.203 129.545Z" fill="#E6E6E6"/>
<path d="M214.23 165.383C212.258 166.701 210.238 163.565 212.249 162.306C214.222 160.989 216.241 164.125 214.23 165.383Z" fill="#E6E6E6"/>
<path d="M148.842 288.258C146.869 289.576 144.85 286.44 146.86 285.181C148.833 283.864 150.852 286.999 148.842 288.258Z" fill="#E6E6E6"/>
<path d="M249.479 31.7572C247.506 33.0746 245.487 29.939 247.498 28.6801C249.47 27.3627 251.49 30.4983 249.479 31.7572Z" fill="#E6E6E6"/>
<path d="M152.417 92.1706C150.445 93.488 148.425 90.3525 150.436 89.0935C152.409 87.7762 154.428 90.9118 152.417 92.1706Z" fill="#E6E6E6"/>
<path d="M292.021 74.8513L290.766 74.5753L291.041 73.3169L290.204 73.1331L289.929 74.3915L288.674 74.1161L288.49 74.9547L289.745 75.2306L289.471 76.4886L290.307 76.6724L290.583 75.4139L291.838 75.6899L292.021 74.8513Z" fill="#E6E6E6"/>
<path d="M87.6321 179.693L86.3769 179.417L86.6518 178.159L85.815 177.975L85.5396 179.233L84.284 178.958L84.1006 179.797L85.3563 180.073L85.0814 181.331L85.9182 181.514L86.1935 180.256L87.4487 180.532L87.6321 179.693Z" fill="#E6E6E6"/>
<path d="M345.043 233.173C343.998 233.658 342.804 233.708 341.723 233.312C340.642 232.916 339.761 232.106 339.275 231.061L334.109 219.917C333.625 218.871 333.576 217.675 333.972 216.592C334.368 215.509 335.176 214.628 336.22 214.142C337.263 213.656 338.457 213.605 339.538 214C340.619 214.395 341.499 215.204 341.985 216.25L347.151 227.393C347.635 228.44 347.685 229.637 347.289 230.72C346.894 231.804 346.086 232.686 345.043 233.173Z" fill="#3F3D56"/>
<path d="M257.176 274.132C256.132 274.617 254.938 274.667 253.857 274.271C252.775 273.874 251.895 273.065 251.409 272.019L246.243 260.875C245.759 259.829 245.71 258.633 246.106 257.55C246.501 256.467 247.31 255.586 248.353 255.1C249.397 254.614 250.59 254.563 251.671 254.958C252.752 255.354 253.633 256.163 254.119 257.208L259.285 268.352C259.769 269.398 259.818 270.595 259.423 271.679C259.028 272.762 258.22 273.644 257.176 274.132Z" fill="#3F3D56"/>
<path d="M337.085 208.826L302.446 224.956C300.241 221.517 293.593 203.897 295.085 198.669L295.818 192.82L316.5 182.651L321.083 186.493C327.541 184.305 337.032 200.341 337.085 208.826Z" fill="#E6E6E6"/>
<path d="M321.003 207.708L312.243 211.787C310.553 212.574 307.981 210.634 306.511 207.462C305.04 204.291 305.219 201.069 306.91 200.282L315.669 196.203C317.36 195.416 319.932 197.357 321.402 200.528C322.872 203.7 322.693 206.921 321.003 207.708Z" fill="#3F3D56"/>
<path d="M246.715 228.696L243.364 221.305L245.293 220.413L248.635 227.781L297.02 335.299L295.092 336.197" fill="#3F3D56"/>
<path d="M279.852 235.041L245.213 251.171C240.103 248.526 232.293 231.223 237.853 224.884L238.585 219.035L259.268 208.866L263.851 212.708C268.603 214.169 277.854 230.72 279.852 235.041Z" fill="#E6E6E6"/>
<path d="M263.057 232.385L254.298 236.464C252.608 237.251 250.196 235.656 248.922 232.908C247.648 230.161 247.987 227.284 249.677 226.497L258.437 222.418C260.127 221.631 262.539 223.227 263.813 225.974C265.087 228.722 264.748 231.598 263.057 232.385Z" fill="#3F3D56"/>
<path d="M87.5042 157.61C116.564 157.61 140.122 134 140.122 104.876C140.122 75.7521 116.564 52.1424 87.5042 52.1424C58.4444 52.1424 34.8867 75.7521 34.8867 104.876C34.8867 134 58.4444 157.61 87.5042 157.61Z" fill="#FF6584"/>
<path opacity="0.3" d="M303.243 159.801L335.219 66.2064L300.108 158.68C299.934 158.9 299.815 159.158 299.761 159.432C299.706 159.707 299.718 159.991 299.795 160.26C299.872 160.53 300.012 160.777 300.203 160.981C300.394 161.185 300.632 161.341 300.895 161.435C301.158 161.529 301.44 161.559 301.717 161.522C301.994 161.485 302.258 161.382 302.488 161.222C302.718 161.063 302.906 160.85 303.037 160.603C303.168 160.356 303.239 160.081 303.243 159.801Z" fill="#F0F0F0"/>
<path d="M384.751 104.012C378.492 106.097 371.552 108.145 363.933 110.157C324.524 120.555 271.699 128.667 215.191 132.997C158.684 137.328 105.243 137.359 64.7138 133.087C44.9709 131.005 29.3554 128.011 18.3013 124.188C6.598 120.141 0.448499 115.263 0.0233287 109.692C-0.804625 98.8381 20.5659 89.2852 38.6394 83.1826L39.1289 84.6381C14.3092 93.0185 0.964058 101.875 1.55164 109.575C2.29967 119.382 25.3799 127.395 64.8741 131.559C105.314 135.822 158.656 135.79 215.075 131.466C271.493 127.142 324.22 119.047 363.543 108.671C401.945 98.5388 423.543 87.1019 422.794 77.2943C422.173 69.1515 406.157 62.1857 377.698 57.6792L377.937 56.1622C398.616 59.4367 423.45 65.7404 424.323 77.1773C424.748 82.7486 419.409 88.506 408.456 94.2896C402.212 97.5864 394.279 100.839 384.751 104.012Z" fill="#3F3D56"/>
<path d="M400.212 197.541C403.232 197.541 405.68 195.088 405.68 192.062C405.68 189.035 403.232 186.582 400.212 186.582C397.193 186.582 394.745 189.035 394.745 192.062C394.745 195.088 397.193 197.541 400.212 197.541Z" fill="#FF6584"/>
<path d="M434.95 346.015C437.97 346.015 440.418 343.562 440.418 340.535C440.418 337.509 437.97 335.056 434.95 335.056C431.931 335.056 429.483 337.509 429.483 340.535C429.483 343.562 431.931 346.015 434.95 346.015Z" fill="#F2F2F2"/>
<path d="M248.49 379.377C254.377 379.377 259.149 374.594 259.149 368.694C259.149 362.794 254.377 358.011 248.49 358.011C242.603 358.011 237.831 362.794 237.831 368.694C237.831 374.594 242.603 379.377 248.49 379.377Z" fill="#F2F2F2"/>
<path d="M167.265 237.987C170.285 237.987 172.732 235.534 172.732 232.508C172.732 229.482 170.285 227.029 167.265 227.029C164.246 227.029 161.798 229.482 161.798 232.508C161.798 235.534 164.246 237.987 167.265 237.987Z" fill="#3F3D56"/>
<path d="M351.069 245.119L374.658 251.239L389.126 279.719L364.666 280.68L351.069 245.119Z" fill="#E6E6E6"/>
<path d="M296.622 204.061L309.605 217.08L342.579 288.529L336.508 293.785L296.622 204.061Z" fill="#CCCCCC"/>
<path d="M268.393 215.862L269.412 234.24L300.535 306.518L308.492 305.491L268.393 215.862Z" fill="#CCCCCC"/>
<path d="M267.544 290.106L254.839 310.944L264.205 341.494L282.449 325.138L267.544 290.106Z" fill="#E6E6E6"/>
<path d="M379.768 302.911C373.172 302.911 365.942 302.661 358.079 302.161C317.408 299.573 264.728 290.574 209.741 276.822C154.754 263.071 104.03 246.209 66.9146 229.344C48.8343 221.128 34.9578 213.352 25.671 206.23C15.8386 198.69 11.5378 192.117 12.8875 186.696C15.5173 176.135 38.8034 173.824 57.875 173.745L57.8814 175.281C31.6912 175.389 16.2402 179.575 14.3747 187.068C11.9983 196.612 31.3791 211.51 67.5474 227.945C104.582 244.773 155.212 261.602 210.112 275.332C265.011 289.062 317.595 298.045 358.176 300.628C397.807 303.151 421.901 299.124 424.277 289.581C426.25 281.657 413.244 269.984 387.655 256.712L388.359 255.349C406.953 264.992 428.535 278.824 425.765 289.953C424.415 295.374 417.537 299.15 405.323 301.177C398.36 302.332 389.808 302.911 379.768 302.911Z" fill="#3F3D56"/>
</g>
<defs>
<clipPath id="clip0_118_1160">
<rect width="461" height="423" fill="white"/>
</clipPath>
</defs>
</svg>
